<svg width="340" height="345" viewBox="0 0 340 345" fill="none" xmlns="http://www.w3.org/2000/svg">
<path d="M114.107 335.693H108.561V96.9888H114.107V335.693ZM108.763 335.502H113.938V97.1798H108.795L108.763 335.502Z" fill="#263238"/>
<path d="M114.003 178.204H108.658V178.968H114.003V178.204Z" fill="#263238"/>
<path d="M114.003 180.413H108.658V181.177H114.003V180.413Z" fill="#263238"/>
<path d="M114.003 182.919H108.658V183.11H114.003V182.919Z" fill="#263238"/>
<path d="M114.003 185.135H108.658V185.327H114.003V185.135Z" fill="#263238"/>
<path d="M114.003 187.351H108.658V187.542H114.003V187.351Z" fill="#263238"/>
<path d="M114.003 189.568H108.658V189.759H114.003V189.568Z" fill="#263238"/>
<path d="M114.003 191.784H108.658V191.975H114.003V191.784Z" fill="#263238"/>
<path d="M114.003 193.71H108.658V194.474H114.003V193.71Z" fill="#263238"/>
<path d="M114.003 196.209H108.658V196.4H114.003V196.209Z" fill="#263238"/>
<path d="M114.003 198.141H108.658V198.905H114.003V198.141Z" fill="#263238"/>
<path d="M114.003 200.641H108.658V200.832H114.003V200.641Z" fill="#263238"/>
<path d="M114.003 202.856H108.658V203.047H114.003V202.856Z" fill="#263238"/>
<path d="M114.003 205.072H108.658V205.263H114.003V205.072Z" fill="#263238"/>
<path d="M114.003 207.289H108.658V207.48H114.003V207.289Z" fill="#263238"/>
<path d="M114.003 209.505H108.658V209.696H114.003V209.505Z" fill="#263238"/>
<path d="M114.003 211.721H108.658V211.912H114.003V211.721Z" fill="#263238"/>
<path d="M114.003 213.647H108.658V214.411H114.003V213.647Z" fill="#263238"/>
<path d="M114.003 216.153H108.658V216.344H114.003V216.153Z" fill="#263238"/>
<path d="M114.003 218.369H108.658V218.56H114.003V218.369Z" fill="#263238"/>
<path d="M114.003 220.295H108.658V221.059H114.003V220.295Z" fill="#263238"/>
<path d="M114.003 222.794H108.658V222.985H114.003V222.794Z" fill="#263238"/>
<path d="M114.003 225.01H108.658V225.201H114.003V225.01Z" fill="#263238"/>
<path d="M114.003 227.226H108.658V227.417H114.003V227.226Z" fill="#263238"/>
<path d="M114.003 229.442H108.658V229.633H114.003V229.442Z" fill="#263238"/>
<path d="M114.003 231.658H108.658V231.849H114.003V231.658Z" fill="#263238"/>
<path d="M114.003 233.584H108.658V234.348H114.003V233.584Z" fill="#263238"/>
<path d="M114.003 235.8H108.658V236.564H114.003V235.8Z" fill="#263238"/>
<path d="M114.003 238.307H108.658V238.498H114.003V238.307Z" fill="#263238"/>
<path d="M114.003 240.523H108.658V240.714H114.003V240.523Z" fill="#263238"/>
<path d="M114.003 242.739H108.658V242.93H114.003V242.739Z" fill="#263238"/>
<path d="M114.003 244.947H108.658V245.138H114.003V244.947Z" fill="#263238"/>
<path d="M114.003 247.163H108.658V247.354H114.003V247.163Z" fill="#263238"/>
<path d="M114.003 249.38H108.658V249.571H114.003V249.38Z" fill="#263238"/>
<path d="M114.003 251.312H108.658V252.077H114.003V251.312Z" fill="#263238"/>
<path d="M114.003 253.811H108.658V254.002H114.003V253.811Z" fill="#263238"/>
<path d="M114.003 255.745H108.658V256.509H114.003V255.745Z" fill="#263238"/>
<path d="M114.003 258.244H108.658V258.435H114.003V258.244Z" fill="#263238"/>
<path d="M114.003 260.169H108.658V260.933H114.003V260.169Z" fill="#263238"/>
<path d="M114.003 262.676H108.658V262.867H114.003V262.676Z" fill="#263238"/>
<path d="M114.003 264.892H108.658V265.083H114.003V264.892Z" fill="#263238"/>
<path d="M114.003 267.108H108.658V267.299H114.003V267.108Z" fill="#263238"/>
<path d="M114.003 269.325H108.658V269.516H114.003V269.325Z" fill="#263238"/>
<path d="M114.003 271.533H108.658V271.724H114.003V271.533Z" fill="#263238"/>
<path d="M114.003 273.466H108.658V274.23H114.003V273.466Z" fill="#263238"/>
<path d="M114.003 275.965H108.658V276.156H114.003V275.965Z" fill="#263238"/>
<path d="M114.003 277.898H108.658V278.662H114.003V277.898Z" fill="#263238"/>
<path d="M114.003 280.397H108.658V280.588H114.003V280.397Z" fill="#263238"/>
<path d="M114.003 282.613H108.658V282.804H114.003V282.613Z" fill="#263238"/>
<path d="M114.003 284.829H108.658V285.02H114.003V284.829Z" fill="#263238"/>
<path d="M114.003 287.045H108.658V287.236H114.003V287.045Z" fill="#263238"/>
<path d="M114.003 289.261H108.658V289.453H114.003V289.261Z" fill="#263238"/>
<path d="M114.003 291.477H108.658V291.668H114.003V291.477Z" fill="#263238"/>
<path d="M114.003 293.693H108.658V293.884H114.003V293.693Z" fill="#263238"/>
<path d="M114.003 295.91H108.658V296.101H114.003V295.91Z" fill="#263238"/>
<path d="M114.003 297.836H108.658V298.6H114.003V297.836Z" fill="#263238"/>
<path d="M114.003 300.334H108.658V300.526H114.003V300.334Z" fill="#263238"/>
<path d="M114.003 302.55H108.658V302.741H114.003V302.55Z" fill="#263238"/>
<path d="M114.003 304.766H108.658V304.957H114.003V304.766Z" fill="#263238"/>
<path d="M114.003 306.982H108.658V307.173H114.003V306.982Z" fill="#263238"/>
<path d="M114.003 309.199H108.658V309.39H114.003V309.199Z" fill="#263238"/>
<path d="M114.003 311.415H108.658V311.606H114.003V311.415Z" fill="#263238"/>
<path d="M114.003 313.631H108.658V313.822H114.003V313.631Z" fill="#263238"/>
<path d="M114.003 315.847H108.658V316.038H114.003V315.847Z" fill="#263238"/>
<path d="M114.003 317.772H108.658V318.536H114.003V317.772Z" fill="#263238"/>
<path d="M114.003 320.279H108.658V320.47H114.003V320.279Z" fill="#263238"/>
<path d="M114.003 322.487H108.658V322.678H114.003V322.487Z" fill="#263238"/>
<path d="M114.003 324.704H108.658V324.895H114.003V324.704Z" fill="#263238"/>
<path d="M114.003 326.919H108.658V327.11H114.003V326.919Z" fill="#263238"/>
<path d="M114.003 329.136H108.658V329.327H114.003V329.136Z" fill="#263238"/>
<path d="M114.003 331.352H108.658V331.543H114.003V331.352Z" fill="#263238"/>
<path d="M114.003 176.134H108.658V176.898H114.003V176.134Z" fill="#263238"/>
<path d="M114.003 174.36H108.658V174.551H114.003V174.36Z" fill="#263238"/>
<path d="M114.003 172.29H108.658V172.481H114.003V172.29Z" fill="#263238"/>
<path d="M114.003 170.227H108.658V170.418H114.003V170.227Z" fill="#263238"/>
<path d="M114.003 168.163H108.658V168.354H114.003V168.163Z" fill="#263238"/>
<path d="M114.003 166.1H108.658V166.291H114.003V166.1Z" fill="#263238"/>
<path d="M114.003 164.029H108.658V164.22H114.003V164.029Z" fill="#263238"/>
<path d="M114.003 161.965H108.658V162.156H114.003V161.965Z" fill="#263238"/>
<path d="M114.003 159.612H108.658V160.376H114.003V159.612Z" fill="#263238"/>
<path d="M114.003 157.84H108.658V158.031H114.003V157.84Z" fill="#263238"/>
<path d="M114.003 155.486H108.658V156.25H114.003V155.486Z" fill="#263238"/>
<path d="M114.003 153.705H108.658V153.896H114.003V153.705Z" fill="#263238"/>
<path d="M114.003 151.642H108.658V151.833H114.003V151.642Z" fill="#263238"/>
<path d="M114.003 149.579H108.658V149.77H114.003V149.579Z" fill="#263238"/>
<path d="M114.003 147.508H108.658V147.699H114.003V147.508Z" fill="#263238"/>
<path d="M114.003 145.445H108.658V145.636H114.003V145.445Z" fill="#263238"/>
<path d="M114.003 143.381H108.658V143.572H114.003V143.381Z" fill="#263238"/>
<path d="M114.003 141.318H108.658V141.509H114.003V141.318Z" fill="#263238"/>
<path d="M114.003 139.247H108.658V139.438H114.003V139.247Z" fill="#263238"/>
<path d="M114.003 137.184H108.658V137.375H114.003V137.184Z" fill="#263238"/>
<path d="M114.003 134.83H108.658V135.594H114.003V134.83Z" fill="#263238"/>
<path d="M114.003 133.057H108.658V133.248H114.003V133.057Z" fill="#263238"/>
<path d="M114.003 130.994H108.658V131.185H114.003V130.994Z" fill="#263238"/>
<path d="M114.003 128.923H108.658V129.114H114.003V128.923Z" fill="#263238"/>
<path d="M114.003 126.86H108.658V127.051H114.003V126.86Z" fill="#263238"/>
<path d="M114.003 124.796H108.658V124.987H114.003V124.796Z" fill="#263238"/>
<path d="M114.003 122.734H108.658V122.925H114.003V122.734Z" fill="#263238"/>
<path d="M114.003 120.662H108.658V120.853H114.003V120.662Z" fill="#263238"/>
<path d="M114.003 118.599H108.658V118.79H114.003V118.599Z" fill="#263238"/>
<path d="M114.003 116.246H108.658V117.01H114.003V116.246Z" fill="#263238"/>
<path d="M114.003 114.473H108.658V114.664H114.003V114.473Z" fill="#263238"/>
<path d="M114.003 112.402H108.658V112.593H114.003V112.402Z" fill="#263238"/>
<path d="M114.003 110.339H108.658V110.53H114.003V110.339Z" fill="#263238"/>
<path d="M114.003 108.275H108.658V108.466H114.003V108.275Z" fill="#263238"/>
<path d="M114.003 106.212H108.658V106.403H114.003V106.212Z" fill="#263238"/>
<path d="M114.003 104.141H108.658V104.332H114.003V104.141Z" fill="#263238"/>
<path d="M114.003 102.078H108.658V102.269H114.003V102.078Z" fill="#263238"/>
<path d="M114.003 100.015H108.658V100.206H114.003V100.015Z" fill="#263238"/>
<path d="M124.361 335.883C124.281 335.881 124.206 335.85 124.15 335.796C124.094 335.741 124.063 335.669 124.063 335.593C124.063 300.288 124.136 257.166 124.208 215.465C124.281 173.765 124.361 130.643 124.361 95.3378C124.354 95.2963 124.357 95.2537 124.368 95.2132C124.38 95.1726 124.401 95.135 124.43 95.1029C124.459 95.0708 124.495 95.045 124.535 95.0273C124.575 95.0097 124.619 95.0005 124.664 95.0005C124.708 95.0005 124.752 95.0097 124.792 95.0273C124.832 95.045 124.868 95.0708 124.897 95.1029C124.926 95.135 124.947 95.1726 124.959 95.2132C124.971 95.2537 124.973 95.2963 124.966 95.3378C124.966 130.643 124.893 173.765 124.813 215.465C124.732 257.166 124.668 300.288 124.668 335.593C124.668 335.67 124.635 335.744 124.578 335.798C124.52 335.853 124.442 335.883 124.361 335.883Z" fill="#FF725E"/>
<path d="M124.362 153.637C124.315 153.636 124.269 153.626 124.227 153.606C124.185 153.586 124.148 153.557 124.12 153.522L96.115 117.606C96.0671 117.544 96.047 117.467 96.0591 117.391C96.0712 117.315 96.1145 117.247 96.1795 117.201C96.2455 117.158 96.3265 117.14 96.406 117.151C96.4854 117.162 96.5573 117.202 96.6068 117.262L124.612 153.178C124.657 153.24 124.676 153.315 124.664 153.389C124.652 153.463 124.61 153.53 124.547 153.576C124.494 153.614 124.429 153.635 124.362 153.637Z" fill="#FF725E"/>
<path d="M124.362 134.532C124.315 134.532 124.269 134.521 124.227 134.501C124.185 134.481 124.148 134.453 124.12 134.417L96.115 98.5014C96.0671 98.4395 96.047 98.3621 96.0591 98.2862C96.0712 98.2103 96.1145 98.1421 96.1795 98.0964C96.2455 98.0529 96.3265 98.0349 96.406 98.0463C96.4854 98.0577 96.5573 98.0975 96.6068 98.1575L124.612 134.073C124.657 134.135 124.676 134.21 124.664 134.284C124.652 134.359 124.61 134.425 124.547 134.471C124.494 134.509 124.429 134.53 124.362 134.532Z" fill="#FF725E"/>
<path d="M124.362 173.879C124.315 173.879 124.269 173.868 124.227 173.849C124.185 173.829 124.148 173.8 124.12 173.765L96.115 137.849C96.0671 137.787 96.047 137.709 96.0591 137.633C96.0712 137.558 96.1145 137.489 96.1795 137.444C96.2455 137.4 96.3265 137.382 96.406 137.393C96.4854 137.405 96.5573 137.445 96.6068 137.505L124.612 173.421C124.657 173.482 124.676 173.558 124.664 173.632C124.652 173.706 124.61 173.772 124.547 173.818C124.494 173.856 124.429 173.878 124.362 173.879Z" fill="#FF725E"/>
<path d="M124.362 194.138C124.315 194.137 124.269 194.127 124.227 194.107C124.185 194.087 124.148 194.058 124.12 194.023L96.115 158.107C96.0671 158.045 96.047 157.968 96.0591 157.892C96.0712 157.816 96.1145 157.748 96.1795 157.702C96.2455 157.659 96.3265 157.641 96.406 157.652C96.4854 157.663 96.5573 157.703 96.6068 157.763L124.612 193.679C124.647 193.722 124.67 193.773 124.675 193.828C124.681 193.882 124.67 193.937 124.643 193.985C124.617 194.034 124.576 194.074 124.526 194.101C124.476 194.128 124.419 194.141 124.362 194.138Z" fill="#FF725E"/>
<path d="M124.362 214.38C124.315 214.378 124.27 214.366 124.228 214.346C124.187 214.327 124.15 214.299 124.12 214.265L96.115 178.349C96.0671 178.287 96.047 178.21 96.0591 178.134C96.0712 178.058 96.1145 177.99 96.1795 177.944C96.2455 177.901 96.3265 177.883 96.406 177.894C96.4854 177.906 96.5573 177.945 96.6068 178.005L124.612 213.921C124.657 213.983 124.676 214.058 124.664 214.132C124.652 214.206 124.61 214.273 124.547 214.319C124.494 214.357 124.429 214.378 124.362 214.38Z" fill="#FF725E"/>
<path d="M124.362 234.638C124.315 234.636 124.27 234.624 124.228 234.605C124.187 234.585 124.15 234.557 124.12 234.524L96.115 198.608C96.0671 198.546 96.047 198.468 96.0591 198.392C96.0712 198.317 96.1145 198.248 96.1795 198.203C96.2455 198.159 96.3265 198.141 96.406 198.153C96.4854 198.164 96.5573 198.204 96.6068 198.264L124.612 234.18C124.657 234.241 124.676 234.317 124.664 234.391C124.652 234.465 124.61 234.532 124.547 234.577C124.494 234.615 124.429 234.637 124.362 234.638Z" fill="#FF725E"/>
<path d="M124.362 254.882C124.315 254.879 124.27 254.868 124.228 254.848C124.187 254.829 124.15 254.801 124.12 254.767L96.115 218.851C96.0671 218.789 96.047 218.712 96.0591 218.636C96.0712 218.56 96.1145 218.492 96.1795 218.446C96.2455 218.403 96.3265 218.385 96.406 218.396C96.4854 218.408 96.5573 218.447 96.6068 218.507L124.612 254.423C124.657 254.485 124.676 254.56 124.664 254.634C124.652 254.708 124.61 254.775 124.547 254.821C124.494 254.859 124.429 254.88 124.362 254.882Z" fill="#FF725E"/>
<path d="M124.362 275.139C124.315 275.137 124.27 275.126 124.228 275.106C124.187 275.086 124.15 275.059 124.12 275.025L96.115 239.109C96.0671 239.047 96.047 238.97 96.0591 238.894C96.0712 238.818 96.1145 238.749 96.1795 238.704C96.2455 238.66 96.3265 238.642 96.406 238.654C96.4854 238.665 96.5573 238.705 96.6068 238.765L124.612 274.681C124.657 274.742 124.676 274.818 124.664 274.892C124.652 274.966 124.61 275.033 124.547 275.078C124.494 275.116 124.429 275.138 124.362 275.139Z" fill="#FF725E"/>
<path d="M124.362 295.383C124.315 295.38 124.27 295.369 124.228 295.349C124.187 295.329 124.15 295.302 124.12 295.268L96.115 259.352C96.0671 259.29 96.047 259.213 96.0591 259.137C96.0712 259.061 96.1145 258.993 96.1795 258.947C96.2455 258.903 96.3265 258.886 96.406 258.897C96.4854 258.908 96.5573 258.948 96.6068 259.008L124.612 294.924C124.657 294.985 124.676 295.061 124.664 295.135C124.652 295.209 124.61 295.276 124.547 295.321C124.494 295.36 124.429 295.381 124.362 295.383Z" fill="#FF725E"/>
<path d="M124.071 314.364C124.025 314.362 123.979 314.35 123.938 314.331C123.896 314.311 123.859 314.283 123.829 314.249L96.1228 279.632C96.099 279.603 96.0815 279.569 96.0715 279.533C96.0614 279.497 96.059 279.46 96.0642 279.423C96.0694 279.386 96.0823 279.35 96.102 279.318C96.1218 279.286 96.148 279.258 96.1792 279.235C96.2105 279.213 96.2461 279.196 96.284 279.186C96.322 279.177 96.3616 279.175 96.4005 279.18C96.4394 279.185 96.4769 279.197 96.5109 279.215C96.5449 279.234 96.5746 279.259 96.5984 279.289L124.313 313.898C124.36 313.959 124.38 314.036 124.37 314.111C124.359 314.186 124.319 314.255 124.257 314.303C124.203 314.341 124.138 314.362 124.071 314.364Z" fill="#FF725E"/>
<path d="M124.361 335.883H96.0987C96.0588 335.883 96.0194 335.876 95.9826 335.861C95.9459 335.847 95.9127 335.825 95.8849 335.798C95.8571 335.771 95.8353 335.739 95.8207 335.704C95.8062 335.668 95.7993 335.631 95.8004 335.593V96.1632C95.7993 96.1254 95.8062 96.0878 95.8207 96.0526C95.8353 96.0174 95.8571 95.9854 95.8849 95.9583C95.9127 95.9312 95.9459 95.9097 95.9826 95.895C96.0194 95.8803 96.0588 95.8728 96.0987 95.8728C96.1799 95.8728 96.2578 95.9034 96.3153 95.9579C96.3727 96.0123 96.405 96.0862 96.405 96.1632V299.433C96.4833 299.45 96.5539 299.49 96.6065 299.547L124.611 335.463C124.639 335.508 124.653 335.56 124.653 335.612C124.653 335.665 124.639 335.716 124.611 335.761C124.584 335.799 124.546 335.831 124.503 335.852C124.459 335.873 124.411 335.884 124.361 335.883ZM96.405 335.31H123.765L96.405 300.25V335.31Z" fill="#FF725E"/>
<path d="M96.0989 150.84C96.0341 150.839 95.9715 150.818 95.9215 150.778C95.8896 150.757 95.8626 150.729 95.842 150.697C95.8215 150.665 95.8078 150.63 95.8018 150.593C95.7958 150.556 95.7976 150.518 95.8071 150.482C95.8166 150.445 95.8336 150.411 95.8571 150.381L124.273 114.396C124.296 114.366 124.325 114.34 124.359 114.321C124.393 114.301 124.43 114.289 124.469 114.283C124.508 114.277 124.548 114.279 124.586 114.288C124.624 114.297 124.661 114.313 124.692 114.335C124.757 114.381 124.801 114.449 124.813 114.525C124.825 114.601 124.805 114.678 124.757 114.74L96.3407 150.717C96.3132 150.754 96.277 150.784 96.235 150.806C96.1931 150.827 96.1464 150.838 96.0989 150.84Z" fill="#FF725E"/>
<path d="M96.0989 131.476C96.0352 131.477 95.9729 131.458 95.9215 131.423C95.8896 131.401 95.8626 131.373 95.842 131.341C95.8215 131.309 95.8078 131.274 95.8018 131.237C95.7958 131.2 95.7976 131.162 95.8071 131.126C95.8166 131.089 95.8336 131.055 95.8571 131.025L123.862 94.5896C123.885 94.5595 123.914 94.534 123.948 94.5146C123.982 94.4953 124.019 94.4824 124.058 94.4767C124.097 94.471 124.137 94.4727 124.175 94.4815C124.213 94.4904 124.249 94.5063 124.281 94.5284C124.313 94.5505 124.34 94.5783 124.36 94.6102C124.381 94.6421 124.394 94.6776 124.4 94.7145C124.406 94.7513 124.404 94.789 124.395 94.8253C124.386 94.8615 124.369 94.8957 124.346 94.9258L96.3407 131.323C96.3182 131.367 96.2839 131.404 96.2415 131.43C96.199 131.457 96.1498 131.473 96.0989 131.476Z" fill="#FF725E"/>
<path d="M96.0989 171.396C96.0352 171.397 95.9729 171.378 95.9215 171.342C95.8896 171.32 95.8626 171.293 95.842 171.261C95.8215 171.229 95.8078 171.193 95.8018 171.156C95.7958 171.119 95.7976 171.082 95.8071 171.045C95.8166 171.009 95.8336 170.975 95.8571 170.945L123.862 134.532C123.909 134.471 123.98 134.431 124.058 134.419C124.137 134.408 124.217 134.426 124.281 134.471C124.345 134.516 124.388 134.583 124.4 134.657C124.412 134.732 124.393 134.808 124.346 134.868L96.3407 171.304C96.3107 171.336 96.2733 171.361 96.2313 171.377C96.1893 171.393 96.144 171.399 96.0989 171.396Z" fill="#FF725E"/>
<path d="M96.0988 191.96C96.0432 191.958 95.9891 191.943 95.9422 191.915C95.8954 191.886 95.8575 191.846 95.8326 191.799C95.8078 191.752 95.7969 191.7 95.8012 191.647C95.8055 191.595 95.8247 191.544 95.8569 191.501L124.273 154.538C124.295 154.507 124.324 154.481 124.358 154.461C124.391 154.441 124.428 154.427 124.467 154.421C124.506 154.414 124.546 154.415 124.585 154.424C124.623 154.432 124.66 154.448 124.692 154.47C124.757 154.515 124.8 154.584 124.812 154.659C124.825 154.735 124.804 154.813 124.757 154.875L96.3406 191.845C96.3127 191.881 96.2762 191.91 96.2342 191.93C96.1921 191.95 96.1457 191.96 96.0988 191.96Z" fill="#FF725E"/>
<path d="M96.0989 212.516C96.0352 212.517 95.9729 212.499 95.9215 212.463C95.8896 212.441 95.8626 212.413 95.842 212.381C95.8215 212.349 95.8078 212.314 95.8018 212.277C95.7958 212.24 95.7976 212.202 95.8071 212.166C95.8166 212.13 95.8336 212.096 95.8571 212.065L123.862 175.63C123.885 175.6 123.914 175.574 123.948 175.555C123.982 175.536 124.019 175.523 124.058 175.517C124.097 175.511 124.137 175.513 124.175 175.522C124.213 175.531 124.249 175.547 124.281 175.569C124.313 175.591 124.34 175.619 124.36 175.65C124.381 175.682 124.394 175.718 124.4 175.755C124.406 175.792 124.404 175.829 124.395 175.866C124.386 175.902 124.369 175.936 124.346 175.966L96.3407 212.402C96.3133 212.438 96.2769 212.467 96.2348 212.487C96.1926 212.507 96.146 212.517 96.0989 212.516Z" fill="#FF725E"/>
<path d="M96.0985 233.11C96.0355 233.107 95.9742 233.089 95.9212 233.057C95.8562 233.011 95.8129 232.943 95.8008 232.867C95.7887 232.791 95.8088 232.713 95.8567 232.652L123.862 196.216C123.91 196.156 123.98 196.117 124.058 196.105C124.136 196.094 124.216 196.112 124.281 196.155C124.314 196.177 124.342 196.205 124.363 196.237C124.384 196.27 124.399 196.306 124.405 196.344C124.411 196.382 124.408 196.421 124.398 196.458C124.388 196.495 124.37 196.53 124.345 196.56L96.3404 232.957C96.3172 233 96.2828 233.037 96.2404 233.063C96.1981 233.09 96.1493 233.106 96.0985 233.11Z" fill="#FF725E"/>
<path d="M96.0989 253.636C96.0352 253.637 95.9729 253.618 95.9215 253.583C95.8896 253.561 95.8626 253.533 95.842 253.501C95.8215 253.469 95.8078 253.434 95.8018 253.397C95.7958 253.36 95.7976 253.322 95.8071 253.286C95.8166 253.249 95.8336 253.215 95.8571 253.185L123.862 216.75C123.885 216.719 123.914 216.694 123.948 216.674C123.982 216.655 124.019 216.642 124.058 216.636C124.097 216.63 124.137 216.632 124.175 216.641C124.213 216.65 124.249 216.666 124.281 216.688C124.314 216.71 124.342 216.737 124.363 216.769C124.384 216.801 124.398 216.837 124.404 216.874C124.41 216.911 124.408 216.949 124.398 216.986C124.388 217.022 124.37 217.056 124.346 217.086L96.3407 253.521C96.3133 253.558 96.2769 253.587 96.2348 253.607C96.1926 253.627 96.146 253.637 96.0989 253.636Z" fill="#FF725E"/>
<path d="M96.0985 274.2C96.0348 274.201 95.9725 274.182 95.9212 274.146C95.8562 274.1 95.8129 274.032 95.8008 273.956C95.7887 273.88 95.8088 273.803 95.8567 273.741L123.862 237.313C123.909 237.252 123.979 237.212 124.058 237.2C124.136 237.189 124.217 237.207 124.281 237.252C124.345 237.297 124.388 237.364 124.4 237.438C124.412 237.513 124.392 237.589 124.345 237.649L96.3404 274.085C96.3129 274.121 96.2765 274.151 96.2344 274.171C96.1923 274.191 96.1456 274.201 96.0985 274.2Z" fill="#FF725E"/>
<path d="M96.0988 294.764C96.0432 294.763 95.9891 294.747 95.9422 294.719C95.8954 294.69 95.8575 294.651 95.8326 294.603C95.8078 294.556 95.7969 294.504 95.8012 294.451C95.8055 294.399 95.8247 294.348 95.8569 294.305L123.862 257.87C123.885 257.839 123.914 257.814 123.948 257.794C123.981 257.775 124.019 257.762 124.058 257.756C124.097 257.751 124.137 257.752 124.175 257.761C124.213 257.77 124.249 257.786 124.281 257.809C124.314 257.83 124.342 257.857 124.363 257.889C124.384 257.921 124.398 257.957 124.404 257.994C124.41 258.031 124.408 258.069 124.398 258.106C124.388 258.142 124.37 258.176 124.345 258.206L96.3406 294.642C96.3135 294.679 96.2774 294.709 96.2354 294.731C96.1933 294.752 96.1464 294.763 96.0988 294.764Z" fill="#FF725E"/>
<path d="M96.0989 315.32C96.0352 315.321 95.9729 315.302 95.9215 315.267C95.8896 315.245 95.8626 315.217 95.842 315.185C95.8215 315.153 95.8078 315.118 95.8018 315.081C95.7958 315.044 95.7976 315.006 95.8071 314.97C95.8166 314.933 95.8336 314.899 95.8571 314.869L123.862 278.434C123.909 278.373 123.98 278.332 124.058 278.321C124.137 278.309 124.217 278.328 124.281 278.372C124.345 278.417 124.388 278.484 124.4 278.558C124.412 278.633 124.393 278.709 124.346 278.77L96.3407 315.205C96.3133 315.242 96.2769 315.271 96.2348 315.291C96.1926 315.311 96.146 315.321 96.0989 315.32Z" fill="#FF725E"/>
<path d="M96.0985 335.884C96.0355 335.882 95.9742 335.863 95.9212 335.831C95.8562 335.785 95.8129 335.717 95.8008 335.641C95.7887 335.565 95.8088 335.488 95.8567 335.426L123.862 298.99C123.91 298.931 123.98 298.891 124.058 298.88C124.136 298.868 124.216 298.886 124.281 298.929C124.314 298.951 124.342 298.979 124.363 299.012C124.384 299.044 124.399 299.08 124.405 299.118C124.411 299.156 124.408 299.195 124.398 299.232C124.388 299.269 124.37 299.304 124.345 299.334L96.3404 335.762C96.3133 335.799 96.2772 335.83 96.2352 335.851C96.1931 335.872 96.1462 335.884 96.0985 335.884Z" fill="#FF725E"/>
<path d="M119.041 59.5517L118.501 58.9786L132.133 47.4702H132.286C160.766 47.4702 190.27 47.5084 218.799 47.5543C247.328 47.6001 276.84 47.646 305.313 47.646V48.4101C276.832 48.4101 247.328 48.3643 218.799 48.3184C190.27 48.2726 160.871 48.2344 132.439 48.2344L119.041 59.5517Z" fill="#FF725E"/>
<path d="M122.483 63.4104C122.425 63.41 122.368 63.3982 122.316 63.3758C122.263 63.3535 122.216 63.321 122.177 63.2805C122.108 63.203 122.073 63.1028 122.081 63.0015C122.088 62.9001 122.137 62.8056 122.217 62.738L140.21 47.7373C140.284 47.6739 140.38 47.6389 140.48 47.6389C140.58 47.6389 140.676 47.6739 140.75 47.7373L156.816 61.9356L172.342 47.722C172.417 47.6581 172.515 47.6228 172.616 47.6228C172.717 47.6228 172.815 47.6581 172.89 47.722L189.916 61.9585L205.587 47.7373C205.66 47.6723 205.756 47.6361 205.857 47.6361C205.957 47.6361 206.054 47.6723 206.127 47.7373L223.055 61.9738L239.138 47.745C239.212 47.6816 239.308 47.6465 239.408 47.6465C239.508 47.6465 239.604 47.6816 239.678 47.745L256.84 61.9814L272.229 47.7602C272.304 47.6925 272.404 47.6547 272.507 47.6547C272.611 47.6547 272.71 47.6925 272.785 47.7602L289.101 61.9356L305.03 47.7144C305.107 47.652 305.204 47.6177 305.305 47.6177C305.405 47.6177 305.503 47.652 305.579 47.7144L323.023 62.1801C323.098 62.2483 323.142 62.3413 323.147 62.4397C323.151 62.538 323.115 62.6342 323.047 62.7081C322.978 62.782 322.882 62.828 322.778 62.8364C322.675 62.8448 322.572 62.815 322.491 62.7533L305.321 48.5168L289.376 62.7456C289.301 62.8111 289.203 62.8476 289.101 62.8476C289 62.8476 288.902 62.8111 288.827 62.7456L272.487 48.532L257.106 62.7609C257.032 62.8264 256.934 62.8628 256.832 62.8628C256.731 62.8628 256.633 62.8264 256.558 62.7609L239.388 48.5244L223.305 62.7533C223.232 62.8183 223.136 62.8544 223.035 62.8544C222.935 62.8544 222.838 62.8183 222.765 62.7533L205.837 48.5473L190.174 62.7685C190.098 62.8324 190.001 62.8678 189.899 62.8678C189.798 62.8678 189.701 62.8324 189.625 62.7685L172.632 48.5473L157.106 62.7609C157.031 62.8286 156.932 62.8664 156.828 62.8664C156.725 62.8664 156.625 62.8286 156.55 62.7609L140.428 48.532L122.693 63.3035C122.636 63.3583 122.563 63.3956 122.483 63.4104Z" fill="#FF725E"/>
<path d="M48.3195 50.1985H19.0732V82.8362H48.3195V50.1985Z" fill="#455A64"/>
<path d="M28.4891 82.8362C28.3762 82.8362 28.2793 75.5307 28.2793 66.5212C28.2793 57.5116 28.3762 50.1985 28.4891 50.1985C28.6021 50.1985 28.699 57.504 28.699 66.5212C28.699 75.5384 28.6264 82.8362 28.4891 82.8362Z" fill="#263238"/>
<path d="M39.775 82.8362C39.662 82.8362 39.5652 75.5307 39.5652 66.5212C39.5652 57.5116 39.662 50.1985 39.775 50.1985C39.888 50.1985 39.9849 57.504 39.9849 66.5212C39.9849 75.5384 39.88 82.8362 39.775 82.8362Z" fill="#263238"/>
<path d="M322.959 63.266H16.4775V58.8032H322.959V63.266ZM16.8806 62.8839H322.556V59.1853H16.8806V62.8839Z" fill="#FF725E"/>
<path d="M119.114 63.2654C119.077 63.2748 119.038 63.2748 119.001 63.2654L102.773 52.8498C102.752 52.8353 102.733 52.8169 102.719 52.7956C102.705 52.7742 102.695 52.7505 102.69 52.7256C102.686 52.7007 102.687 52.6753 102.693 52.6507C102.699 52.6261 102.71 52.6029 102.725 52.5823C102.74 52.5619 102.758 52.5445 102.78 52.5311C102.802 52.5176 102.826 52.5085 102.852 52.5043C102.877 52.5 102.904 52.5006 102.929 52.5062C102.954 52.5117 102.978 52.522 102.999 52.5365L119.226 62.9139C119.249 62.9278 119.268 62.9458 119.283 62.9668C119.298 62.9878 119.309 63.0115 119.314 63.0364C119.319 63.0613 119.319 63.0869 119.314 63.1118C119.308 63.1367 119.298 63.1604 119.283 63.1814C119.264 63.2071 119.238 63.2281 119.209 63.2427C119.179 63.2574 119.147 63.2651 119.114 63.2654Z" fill="#FF725E"/>
<path d="M119.114 63.1971C119.065 63.1973 119.018 63.18 118.982 63.1489C118.947 63.1177 118.924 63.0749 118.92 63.029L117.502 52.5446L101.274 63.1589C101.243 63.1794 101.206 63.1909 101.167 63.1921C101.129 63.1933 101.091 63.1842 101.058 63.1657C101.025 63.1473 100.998 63.1203 100.981 63.088C100.964 63.0556 100.956 63.0193 100.96 62.9831L106.909 18.837L107.651 13.3121L109.263 1.52091C109.267 1.47496 109.289 1.43215 109.325 1.40099C109.361 1.36984 109.408 1.35263 109.456 1.35279H110.811C110.86 1.35245 110.908 1.3694 110.945 1.40041C110.983 1.43141 111.006 1.47431 111.012 1.52091L111.722 6.7784L113.334 18.8752L114.817 29.8716L115.623 35.8474C115.626 35.8651 115.626 35.8832 115.623 35.9009C115.64 35.9402 115.64 35.9839 115.623 36.0232L119.267 62.9678C119.274 63.0174 119.26 63.0676 119.228 63.1076C119.197 63.1476 119.15 63.1742 119.098 63.1818L119.114 63.1971ZM102.733 52.8273L101.419 62.601L116.816 52.5216L102.733 52.8273ZM116.236 43.2217L103.338 52.3917L117.477 52.0861L116.236 43.2217ZM104.039 43.13L102.806 52.3L115.704 43.13H104.039ZM104.579 42.7479H116.172L115.301 36.3059L104.579 42.7479ZM104.982 36.1607L104.12 42.5721L114.785 36.1607H104.982ZM105.506 35.7787H115.228L114.479 30.2384L105.506 35.7787ZM105.797 30.1009L105.055 35.6029L113.939 30.1009H105.797ZM106.256 29.7188H114.406L113.713 24.553L106.256 29.7188ZM106.562 24.3696L105.877 29.5125L113.245 24.4002L106.562 24.3696ZM106.966 23.9875H113.64L112.995 19.242L106.966 23.9875ZM107.288 19.0128L106.683 23.7735L112.625 19.0892L107.288 19.0128ZM107.562 18.6383H112.915L112.254 13.7935L107.562 18.6383ZM108.03 13.4802L107.393 18.2486L111.939 13.5031L108.03 13.4802ZM108.191 13.0981H112.165L111.359 7.35917L108.191 13.0981ZM108.9 6.98472L108.191 12.2346L111.165 6.92359L108.9 6.98472ZM109.618 1.63553L108.957 6.58736L111.278 6.53386L110.617 1.63553H109.618Z" fill="#FF725E"/>
<path d="M112.423 13.5792C112.387 13.5785 112.351 13.569 112.32 13.5516C112.289 13.5342 112.263 13.5095 112.245 13.4798L108.594 6.95382C108.581 6.93175 108.573 6.90752 108.57 6.8825C108.567 6.85748 108.57 6.83217 108.577 6.80803C108.585 6.78389 108.597 6.76138 108.614 6.74181C108.63 6.72225 108.651 6.706 108.674 6.694C108.698 6.68218 108.724 6.67498 108.751 6.67281C108.778 6.67065 108.804 6.67357 108.83 6.6814C108.856 6.68923 108.879 6.70181 108.899 6.71841C108.92 6.73501 108.936 6.75529 108.948 6.77806L112.6 13.2964C112.613 13.3185 112.621 13.3427 112.624 13.3678C112.627 13.3928 112.624 13.4181 112.617 13.4422C112.609 13.4664 112.597 13.4889 112.58 13.5084C112.563 13.528 112.543 13.5443 112.52 13.5562L112.423 13.5792Z" fill="#FF725E"/>
<path d="M113.173 19.1425C113.143 19.1422 113.114 19.136 113.088 19.1241C113.062 19.1122 113.038 19.095 113.019 19.0737L107.731 13.5717C107.694 13.5347 107.673 13.4854 107.673 13.4341C107.673 13.3828 107.694 13.3336 107.731 13.2966C107.769 13.2616 107.82 13.2419 107.872 13.2419C107.925 13.2419 107.976 13.2616 108.013 13.2966L113.302 18.8062C113.338 18.8419 113.359 18.8899 113.359 18.94C113.359 18.99 113.338 19.038 113.302 19.0737C113.268 19.1097 113.222 19.1339 113.173 19.1425Z" fill="#FF725E"/>
<path d="M113.866 24.4917C113.819 24.49 113.773 24.474 113.737 24.4458L107.005 19.1425C106.979 19.1292 106.956 19.1106 106.938 19.088C106.921 19.0654 106.908 19.0393 106.902 19.0116C106.897 18.9839 106.897 18.9553 106.904 18.9279C106.911 18.9005 106.925 18.8749 106.944 18.853C106.963 18.8311 106.986 18.8135 107.013 18.8013C107.04 18.7891 107.07 18.7828 107.099 18.7827C107.129 18.7826 107.159 18.7888 107.186 18.8008C107.213 18.8128 107.236 18.8303 107.255 18.8521L113.995 24.1555C114.014 24.1726 114.029 24.1933 114.04 24.2163C114.05 24.2393 114.056 24.2641 114.056 24.2892C114.056 24.3142 114.05 24.339 114.04 24.362C114.029 24.385 114.014 24.4058 113.995 24.4229C113.962 24.4605 113.916 24.4851 113.866 24.4917Z" fill="#FF725E"/>
<path d="M114.64 30.1692C114.601 30.1841 114.558 30.1841 114.519 30.1692L106.296 24.4685C106.27 24.456 106.248 24.4382 106.23 24.4166C106.212 24.3949 106.199 24.3698 106.192 24.343C106.185 24.3162 106.185 24.2883 106.19 24.2612C106.196 24.2342 106.208 24.2087 106.225 24.1863C106.242 24.164 106.264 24.1455 106.289 24.1319C106.315 24.1184 106.343 24.1103 106.372 24.108C106.401 24.1058 106.43 24.1096 106.457 24.119C106.485 24.1285 106.509 24.1434 106.53 24.1629L114.744 29.8406C114.766 29.8551 114.785 29.8735 114.799 29.8949C114.813 29.9162 114.823 29.9399 114.827 29.9648C114.832 29.9897 114.831 30.0152 114.825 30.0397C114.819 30.0643 114.808 30.0876 114.793 30.1081C114.773 30.128 114.75 30.1438 114.723 30.1543C114.697 30.1649 114.668 30.17 114.64 30.1692Z" fill="#FF725E"/>
<path d="M115.446 36.2291C115.412 36.2391 115.375 36.2391 115.341 36.2291L105.53 30.1692C105.508 30.1553 105.489 30.1373 105.474 30.1163C105.459 30.0952 105.448 30.0716 105.443 30.0467C105.438 30.0218 105.438 29.9961 105.443 29.9712C105.448 29.9463 105.459 29.9227 105.474 29.9017C105.503 29.8609 105.548 29.8325 105.6 29.8225C105.651 29.8126 105.704 29.8218 105.748 29.8482L115.55 35.8852C115.573 35.8983 115.592 35.9156 115.607 35.936C115.622 35.9563 115.632 35.9794 115.637 36.0036C115.643 36.0279 115.643 36.053 115.637 36.0773C115.632 36.1016 115.622 36.1246 115.607 36.145C115.589 36.1697 115.564 36.1901 115.537 36.2047C115.509 36.2193 115.478 36.2276 115.446 36.2291Z" fill="#FF725E"/>
<path d="M116.397 43.1987C116.363 43.2098 116.326 43.2098 116.292 43.1987L104.692 36.2371C104.647 36.2089 104.615 36.1654 104.603 36.1156C104.591 36.0658 104.6 36.0135 104.627 35.9696C104.656 35.9276 104.7 35.8976 104.751 35.8862C104.803 35.8748 104.856 35.8828 104.902 35.9085L116.502 42.8319C116.525 42.8452 116.545 42.8627 116.561 42.8834C116.576 42.9042 116.588 42.9277 116.594 42.9527C116.6 42.9776 116.6 43.0035 116.596 43.0287C116.591 43.0539 116.581 43.0779 116.566 43.0994C116.549 43.1279 116.524 43.152 116.495 43.1693C116.465 43.1866 116.432 43.1967 116.397 43.1987Z" fill="#FF725E"/>
<path d="M117.485 52.5061C117.448 52.5168 117.409 52.5168 117.372 52.5061L103.862 43.1603C103.839 43.1473 103.82 43.13 103.805 43.1093C103.79 43.0887 103.78 43.0654 103.776 43.0408C103.771 43.0162 103.772 42.991 103.778 42.9668C103.785 42.9426 103.797 42.92 103.813 42.9005C103.829 42.8798 103.848 42.8623 103.87 42.8487C103.893 42.8352 103.918 42.8261 103.944 42.8218C103.97 42.8176 103.997 42.8183 104.023 42.8239C104.049 42.8295 104.074 42.84 104.095 42.8546L117.606 52.1622C117.628 52.1767 117.646 52.1952 117.661 52.2165C117.675 52.2378 117.685 52.2616 117.689 52.2864C117.694 52.3113 117.693 52.3368 117.687 52.3613C117.681 52.3859 117.67 52.4092 117.654 52.4297C117.634 52.4532 117.608 52.4722 117.579 52.4854C117.549 52.4985 117.518 52.5056 117.485 52.5061Z" fill="#FF725E"/>
<path d="M110.142 76.7231C110.088 76.7231 110.037 76.703 109.999 76.6671C109.961 76.6313 109.94 76.5827 109.94 76.5321V0.634646C109.94 0.583978 109.961 0.535386 109.999 0.499558C110.037 0.463731 110.088 0.443604 110.142 0.443604C110.195 0.443604 110.247 0.463731 110.284 0.499558C110.322 0.535386 110.343 0.583978 110.343 0.634646V76.5321C110.343 76.5827 110.322 76.6313 110.284 76.6671C110.247 76.703 110.195 76.7231 110.142 76.7231Z" fill="#FF725E"/>
<path d="M106.965 63.0745H98.7188V89.66H106.965V63.0745Z" fill="#FF725E"/>
<path d="M126.224 76.0195H103.975V89.9962H126.224V76.0195Z" fill="#FF725E"/>
<path d="M99.1939 78.9614H92.2129V89.996H99.1939V78.9614Z" fill="#FF725E"/>
<path d="M128.328 94.1841H92.6001V99.1436H128.328V94.1841Z" fill="#FF725E"/>
<path d="M124.474 89.3777H95.7036V92.1287H124.474V89.3777Z" fill="#FF725E"/>
<path d="M123.007 91.6548H97.2354V94.1842H123.007V91.6548Z" fill="#FF725E"/>
<path d="M124.515 163.8H96.0825V165.329H124.515V163.8Z" fill="#FF725E"/>
<path d="M124.361 223.505H96.0825V225.033H124.361V223.505Z" fill="#FF725E"/>
<path d="M124.361 286.373H96.0825V287.901H124.361V286.373Z" fill="#FF725E"/>
<path d="M21.1854 53.5303L20.9758 53.2093L110.222 1.00122L110.311 1.03179L255.93 47.7914L255.801 48.1582L110.27 1.42151L21.1854 53.5303Z" fill="#FF725E"/>
<path d="M99.9927 58.9404H99.7911V53.4613H16.7843V58.9404H16.5828V53.2703H99.9927V58.9404Z" fill="#FF725E"/>
<path d="M21.1776 53.3699H20.9758V58.7955H21.1776V53.3699Z" fill="#FF725E"/>
<path d="M24.934 53.3699H24.7322V58.7955H24.934V53.3699Z" fill="#FF725E"/>
<path d="M28.6908 53.3699H28.489V58.7955H28.6908V53.3699Z" fill="#FF725E"/>
<path d="M32.4471 53.3699H32.2454V58.7955H32.4471V53.3699Z" fill="#FF725E"/>
<path d="M36.2118 53.3699H36.01V58.7955H36.2118V53.3699Z" fill="#FF725E"/>
<path d="M39.9684 53.3699H39.7666V58.7955H39.9684V53.3699Z" fill="#FF725E"/>
<path d="M43.725 53.3699H43.5232V58.7955H43.725V53.3699Z" fill="#FF725E"/>
<path d="M47.4816 53.3699H47.2798V58.7955H47.4816V53.3699Z" fill="#FF725E"/>
<path d="M51.2379 53.3699H51.0361V58.7955H51.2379V53.3699Z" fill="#FF725E"/>
<path d="M54.9945 53.3699H54.7927V58.7955H54.9945V53.3699Z" fill="#FF725E"/>
<path d="M58.7511 53.3699H58.5493V58.7955H58.7511V53.3699Z" fill="#FF725E"/>
<path d="M62.5074 53.3699H62.3057V58.7955H62.5074V53.3699Z" fill="#FF725E"/>
<path d="M66.264 53.3699H66.0623V58.7955H66.264V53.3699Z" fill="#FF725E"/>
<path d="M70.0209 53.3699H69.8191V58.7955H70.0209V53.3699Z" fill="#FF725E"/>
<path d="M73.7775 53.3699H73.5757V58.7955H73.7775V53.3699Z" fill="#FF725E"/>
<path d="M77.5338 53.3699H77.332V58.7955H77.5338V53.3699Z" fill="#FF725E"/>
<path d="M81.2902 53.3699H81.0884V58.7955H81.2902V53.3699Z" fill="#FF725E"/>
<path d="M85.0467 53.3699H84.845V58.7955H85.0467V53.3699Z" fill="#FF725E"/>
<path d="M88.8116 53.3699H88.6099V58.7955H88.8116V53.3699Z" fill="#FF725E"/>
<path d="M92.5685 53.3699H92.3667V58.7955H92.5685V53.3699Z" fill="#FF725E"/>
<path d="M96.3246 53.3699H96.1228V58.7955H96.3246V53.3699Z" fill="#FF725E"/>
<path d="M79.8069 58.9937H72.197V63.0743H79.8069V58.9937Z" fill="#FF725E"/>
<path d="M96.018 58.9937H88.4082V63.0743H96.018V58.9937Z" fill="#FF725E"/>
<path d="M138.864 58.9937H131.254V63.0743H138.864V58.9937Z" fill="#FF725E"/>
<path d="M160.686 58.9937H153.076V63.0743H160.686V58.9937Z" fill="#FF725E"/>
<path d="M182.516 58.9937H174.906V63.0743H182.516V58.9937Z" fill="#FF725E"/>
<path d="M204.337 58.9937H196.728V63.0743H204.337V58.9937Z" fill="#FF725E"/>
<path d="M226.159 58.9937H218.549V63.0743H226.159V58.9937Z" fill="#FF725E"/>
<path d="M247.981 58.9937H240.371V63.0743H247.981V58.9937Z" fill="#FF725E"/>
<path d="M269.803 58.9937H262.193V63.0743H269.803V58.9937Z" fill="#FF725E"/>
<path d="M291.625 58.9937H284.015V63.0743H291.625V58.9937Z" fill="#FF725E"/>
<path d="M313.455 58.9937H305.845V63.0743H313.455V58.9937Z" fill="#FF725E"/>
<path d="M63.1604 58.9937H55.5505V63.0743H63.1604V58.9937Z" fill="#FF725E"/>
<path d="M46.5141 58.9937H38.9043V63.0743H46.5141V58.9937Z" fill="#FF725E"/>
<path d="M29.8593 58.9937H22.2495V63.0743H29.8593V58.9937Z" fill="#FF725E"/>
<path d="M109.327 1.3236L33.5801 53.2249L33.8162 53.5345L109.563 1.63326L109.327 1.3236Z" fill="#FF725E"/>
<path d="M323.289 67.5068C325.043 67.5068 326.465 66.1588 326.465 64.4959C326.465 62.8331 325.043 61.4851 323.289 61.4851C321.535 61.4851 320.113 62.8331 320.113 64.4959C320.113 66.1588 321.535 67.5068 323.289 67.5068Z" fill="#263238"/>
<path d="M310.27 67.5068C312.025 67.5068 313.447 66.1588 313.447 64.4959C313.447 62.8331 312.025 61.4851 310.27 61.4851C308.516 61.4851 307.094 62.8331 307.094 64.4959C307.094 66.1588 308.516 67.5068 310.27 67.5068Z" fill="#263238"/>
<path d="M323.281 58.1838H305.313V63.6247H323.281V58.1838Z" fill="#FF725E"/>
<path d="M323.289 63.6323C323.272 63.5004 323.272 63.3669 323.289 63.2349C323.289 62.9522 323.289 62.593 323.289 62.1498C323.289 61.1793 323.241 59.8573 323.217 58.1838L323.354 58.3137C319.081 58.3595 312.608 58.3824 305.385 58.3824C305.474 58.2984 305.168 58.5811 305.587 58.1838V63.6094L305.377 63.4107C310.504 63.4107 314.962 63.4642 318.171 63.5024L321.951 63.5559H322.975H323.354C323.244 63.567 323.133 63.567 323.023 63.5559H322.04L318.316 63.6094C315.091 63.6476 310.593 63.6934 305.377 63.7011H305.176V60.973C305.176 60.5145 305.176 60.056 305.176 59.5898V58.2067C305.595 57.8093 305.297 58.0997 305.393 58.008C312.649 58.008 319.098 58.008 323.362 58.0844H323.499V58.2067C323.499 59.8955 323.443 61.2634 323.426 62.2568C323.426 62.6771 323.426 63.021 323.426 63.3114C323.391 63.4222 323.346 63.5296 323.289 63.6323Z" fill="#263238"/>
<path d="M132.407 333.392H86.9492V345H132.407V333.392Z" fill="#E0E0E0"/>
<path d="M132.407 337.703H86.9492V340.538H132.407V337.703Z" fill="white"/>
<path d="M86.9492 337.703L88.1745 340.538H90.5123L89.1499 337.703H86.9492Z" fill="#FF725E"/>
<path d="M91.5522 337.703L92.7776 340.538H95.1073L93.7449 337.703H91.5522Z" fill="#FF725E"/>
<path d="M96.147 337.703L97.3723 340.538H99.7101L98.3477 337.703H96.147Z" fill="#FF725E"/>
<path d="M100.75 337.703L101.975 340.538H104.305L102.943 337.703H100.75Z" fill="#FF725E"/>
<path d="M105.345 337.703L106.57 340.538H108.908L107.546 337.703H105.345Z" fill="#FF725E"/>
<path d="M109.948 337.703L111.173 340.538H113.511L112.141 337.703H109.948Z" fill="#FF725E"/>
<path d="M114.551 337.703L115.768 340.538H118.106L116.743 337.703H114.551Z" fill="#FF725E"/>
<path d="M119.146 337.703L120.371 340.538H122.709L121.347 337.703H119.146Z" fill="#FF725E"/>
<path d="M123.749 337.703L124.966 340.538H127.304L125.941 337.703H123.749Z" fill="#FF725E"/>
<path d="M128.344 337.703L129.569 340.538H131.907L130.545 337.703H128.344Z" fill="#FF725E"/>
<path d="M132.713 337.74C132.713 337.847 122.451 337.939 109.795 337.939C97.1385 337.939 86.8765 337.847 86.8765 337.74C86.8765 337.633 97.1385 337.542 109.795 337.542C122.451 337.542 132.713 337.626 132.713 337.74Z" fill="#263238"/>
<path d="M132.713 340.698C132.713 340.805 122.451 340.896 109.795 340.896C97.1385 340.896 86.8765 340.805 86.8765 340.698C86.8765 340.591 97.1385 340.499 109.795 340.499C122.451 340.499 132.713 340.583 132.713 340.698Z" fill="#263238"/>
<path d="M111.576 0H108.908V2.5294H111.576V0Z" fill="#FF725E"/>
<path d="M220.936 89.5762H220.532V124.14H220.936V89.5762Z" fill="#263238"/>
<path d="M226.691 69.967C228.445 69.967 229.867 68.619 229.867 66.9561C229.867 65.2933 228.445 63.9453 226.691 63.9453C224.937 63.9453 223.515 65.2933 223.515 66.9561C223.515 68.619 224.937 69.967 226.691 69.967Z" fill="#263238"/>
<path d="M215.26 69.967C217.014 69.967 218.436 68.619 218.436 66.9561C218.436 65.2933 217.014 63.9453 215.26 63.9453C213.506 63.9453 212.084 65.2933 212.084 66.9561C212.084 68.619 213.506 69.967 215.26 69.967Z" fill="#263238"/>
<path d="M209.408 66.6582C210.534 66.6582 211.447 65.7926 211.447 64.7249C211.447 63.6571 210.534 62.7915 209.408 62.7915C208.282 62.7915 207.368 63.6571 207.368 64.7249C207.368 65.7926 208.282 66.6582 209.408 66.6582Z" fill="#263238"/>
<path d="M216.542 81.7277C216.334 79.4944 216.264 77.2516 216.332 75.0106C216.264 72.7671 216.334 70.5217 216.542 68.2859C216.754 70.5214 216.823 72.7671 216.751 75.0106C216.824 77.2516 216.754 79.4947 216.542 81.7277Z" fill="#263238"/>
<path d="M225.401 81.7277C225.188 79.4947 225.119 77.2516 225.191 75.0106C225.119 72.7671 225.189 70.5214 225.401 68.2859C225.608 70.5217 225.678 72.7671 225.61 75.0106C225.678 77.2516 225.608 79.4944 225.401 81.7277Z" fill="#263238"/>
<path d="M214.801 80.4441C214.801 80.6352 217.3 91.3488 217.3 91.3488H223.998L226.417 80.4441L220.605 78.1516L214.801 80.4441Z" fill="#263238"/>
<path d="M235.672 126.83H205.192V144.627H235.672V126.83Z" fill="#FF725E"/>
<path d="M237.792 144.031H202.766V145.246H237.792V144.031Z" fill="#455A64"/>
<path d="M237.792 146.751H202.766V147.966H237.792V146.751Z" fill="#455A64"/>
<path d="M206.796 144.635H204.99V147.363H206.796V144.635Z" fill="#455A64"/>
<path d="M212.205 144.635H210.399V147.363H212.205V144.635Z" fill="#455A64"/>
<path d="M217.622 144.635H215.817V147.363H217.622V144.635Z" fill="#455A64"/>
<path d="M223.032 144.635H221.226V147.363H223.032V144.635Z" fill="#455A64"/>
<path d="M228.449 144.635H226.643V147.363H228.449V144.635Z" fill="#455A64"/>
<path d="M233.866 144.635H232.06V147.363H233.866V144.635Z" fill="#455A64"/>
<path d="M237.405 143.878C237.405 143.993 229.698 144.077 220.178 144.077C210.657 144.077 202.951 143.993 202.951 143.878C202.951 143.763 210.673 143.702 220.178 143.702C229.682 143.702 237.405 143.771 237.405 143.878Z" fill="#263238"/>
<path d="M229.867 62.0276H210.423V66.9565H229.867V62.0276Z" fill="#FF725E"/>
<path d="M229.867 66.9564C229.858 66.8394 229.858 66.7219 229.867 66.6049V65.6268C229.867 64.7403 229.827 63.5329 229.795 62.0275L229.924 62.1498C225.49 62.1956 218.428 62.2262 210.48 62.2262C210.577 62.1421 210.27 62.4249 210.689 62.0275V66.9488L210.48 66.7501C215.994 66.7501 220.822 66.8036 224.297 66.8418L228.4 66.8953H229.521H229.924C229.806 66.9064 229.687 66.9064 229.569 66.8953H228.497L224.466 66.9564C221 66.9946 216.107 67.0328 210.504 67.0405H210.302V66.8494C210.302 66.0853 210.302 65.2447 210.302 64.427V61.9282L210.512 61.7295C218.46 61.7295 225.522 61.7295 229.956 61.8059H230.02V61.9282C230.02 63.4565 229.964 64.6945 229.948 65.5962C229.948 65.9783 229.948 66.2916 229.948 66.5438C229.942 66.6843 229.915 66.8232 229.867 66.9564Z" fill="#263238"/>
<path d="M223.176 124.514H218.59V147.966H223.176V124.514Z" fill="#263238"/>
<path d="M121.863 63.0059C122.865 63.1733 123.766 63.6855 124.394 64.4443C125.022 65.203 125.332 66.1549 125.265 67.1171V76.0197H106.724L106.957 63.0823L121.863 63.0059Z" fill="#EBEBEB"/>
<path d="M121.862 63.0059H121.588H120.782L117.767 63.067L106.965 63.1969L107.142 63.0364C107.078 66.8114 107.013 71.2283 106.933 75.9662L106.731 75.7675H109.432H125.256L125.079 75.9433C125.079 73.7501 125.079 71.7403 125.079 69.9522C125.079 69.0657 125.079 68.2328 125.079 67.461C125.13 66.766 125.039 66.0681 124.813 65.4054C124.464 64.4833 123.75 63.7266 122.822 63.2962C122.488 63.1549 122.146 63.0324 121.798 62.9294C121.891 62.9127 121.987 62.9127 122.08 62.9294C122.356 62.9869 122.626 63.0688 122.886 63.174C123.375 63.3772 123.816 63.6703 124.184 64.0362C124.552 64.4022 124.84 64.8338 125.03 65.306C125.276 65.9889 125.383 66.7098 125.345 67.4304C125.345 68.1946 125.345 69.0352 125.345 69.9216C125.345 71.7098 125.345 73.7425 125.345 75.9127V76.0808H125.159H109.335H106.522V75.8745C106.618 71.1366 106.707 66.7044 106.78 62.9447V62.7766H106.949H117.767H120.782H121.588C121.694 62.8355 121.787 62.9134 121.862 63.0059Z" fill="#263238"/>
<path d="M119.227 66.5208C118.147 67.6359 116.965 68.6587 115.696 69.5774C114.518 70.5816 113.25 71.4867 111.907 72.2826C112.987 71.1817 114.166 70.1718 115.43 69.2641C116.608 68.2455 117.878 67.3275 119.227 66.5208Z" fill="#263238"/>
<path d="M119.758 69.1113C119.031 69.9701 118.195 70.7402 117.267 71.4038C116.433 72.1617 115.504 72.8211 114.502 73.3678C115.23 72.509 116.066 71.7389 116.993 71.0752C117.828 70.3174 118.757 69.6579 119.758 69.1113Z" fill="#263238"/>
<path d="M98.9608 89.9884C98.8478 89.9884 98.751 84.0431 98.751 76.7071C98.751 69.371 98.8478 63.4258 98.9608 63.4258C99.0738 63.4258 99.1707 69.371 99.1707 76.7071C99.1707 84.0431 99.0738 89.9884 98.9608 89.9884Z" fill="#263238"/>
<path d="M124.668 89.989C124.668 90.1036 118.073 90.1877 109.94 90.1877C101.806 90.1877 95.2036 90.1036 95.2036 89.989C95.2036 89.8743 101.798 89.7903 109.94 89.7903C118.081 89.7903 124.668 89.882 124.668 89.989Z" fill="#263238"/>
<path d="M124.668 92.1284C124.668 92.2354 118.219 92.3271 110.157 92.3271C102.096 92.3271 95.6472 92.2354 95.6472 92.1284C95.6472 92.0214 102.096 91.9297 110.157 91.9297C118.219 91.9297 124.668 92.0214 124.668 92.1284Z" fill="#263238"/>
<path d="M124.668 94.1838C124.668 94.2908 118.219 94.3825 110.157 94.3825C102.096 94.3825 95.6472 94.2908 95.6472 94.1838C95.6472 94.0768 102.096 93.9851 110.157 93.9851C118.219 93.9851 124.668 94.0768 124.668 94.1838Z" fill="#263238"/>
<path d="M258.703 46.1711H248.433V48.0281H258.703V46.1711Z" fill="#FF725E"/>
<path d="M286.828 339.284H283.539V201.466H286.828V339.284ZM283.741 339.093H286.627V201.657H283.741V339.093Z" fill="#263238"/>
<path d="M286.731 248.21H283.644V248.974H286.731V248.21Z" fill="#263238"/>
<path d="M286.731 249.486H283.644V250.25H286.731V249.486Z" fill="#263238"/>
<path d="M286.731 251.053H283.644V251.244H286.731V251.053Z" fill="#263238"/>
<path d="M286.731 252.329H283.644V252.52H286.731V252.329Z" fill="#263238"/>
<path d="M286.731 253.605H283.644V253.796H286.731V253.605Z" fill="#263238"/>
<path d="M286.731 254.881H283.644V255.072H286.731V254.881Z" fill="#263238"/>
<path d="M286.731 256.165H283.644V256.356H286.731V256.165Z" fill="#263238"/>
<path d="M286.731 257.158H283.644V257.923H286.731V257.158Z" fill="#263238"/>
<path d="M286.731 258.718H283.644V258.909H286.731V258.718Z" fill="#263238"/>
<path d="M286.731 259.711H283.644V260.475H286.731V259.711Z" fill="#263238"/>
<path d="M286.731 261.277H283.644V261.468H286.731V261.277Z" fill="#263238"/>
<path d="M286.731 262.554H283.644V262.745H286.731V262.554Z" fill="#263238"/>
<path d="M286.731 263.83H283.644V264.021H286.731V263.83Z" fill="#263238"/>
<path d="M286.731 265.114H283.644V265.305H286.731V265.114Z" fill="#263238"/>
<path d="M286.731 266.39H283.644V266.581H286.731V266.39Z" fill="#263238"/>
<path d="M286.731 267.666H283.644V267.857H286.731V267.666Z" fill="#263238"/>
<path d="M286.731 268.659H283.644V269.424H286.731V268.659Z" fill="#263238"/>
<path d="M286.731 270.226H283.644V270.417H286.731V270.226Z" fill="#263238"/>
<path d="M286.731 271.502H283.644V271.693H286.731V271.502Z" fill="#263238"/>
<path d="M286.731 272.496H283.644V273.26H286.731V272.496Z" fill="#263238"/>
<path d="M286.731 274.062H283.644V274.253H286.731V274.062Z" fill="#263238"/>
<path d="M286.731 275.338H283.644V275.529H286.731V275.338Z" fill="#263238"/>
<path d="M286.731 276.614H283.644V276.805H286.731V276.614Z" fill="#263238"/>
<path d="M286.731 277.898H283.644V278.089H286.731V277.898Z" fill="#263238"/>
<path d="M286.731 279.174H283.644V279.365H286.731V279.174Z" fill="#263238"/>
<path d="M286.731 280.168H283.644V280.932H286.731V280.168Z" fill="#263238"/>
<path d="M286.731 281.444H283.644V282.208H286.731V281.444Z" fill="#263238"/>
<path d="M286.731 283.01H283.644V283.201H286.731V283.01Z" fill="#263238"/>
<path d="M286.731 284.286H283.644V284.477H286.731V284.286Z" fill="#263238"/>
<path d="M286.731 285.563H283.644V285.754H286.731V285.563Z" fill="#263238"/>
<path d="M286.731 286.847H283.644V287.038H286.731V286.847Z" fill="#263238"/>
<path d="M286.731 288.122H283.644V288.313H286.731V288.122Z" fill="#263238"/>
<path d="M286.731 289.399H283.644V289.59H286.731V289.399Z" fill="#263238"/>
<path d="M286.731 290.393H283.644V291.157H286.731V290.393Z" fill="#263238"/>
<path d="M286.731 291.958H283.644V292.15H286.731V291.958Z" fill="#263238"/>
<path d="M286.731 292.952H283.644V293.716H286.731V292.952Z" fill="#263238"/>
<path d="M286.731 294.511H283.644V294.702H286.731V294.511Z" fill="#263238"/>
<path d="M286.731 295.504H283.644V296.269H286.731V295.504Z" fill="#263238"/>
<path d="M286.731 297.071H283.644V297.262H286.731V297.071Z" fill="#263238"/>
<path d="M286.731 298.347H283.644V298.538H286.731V298.347Z" fill="#263238"/>
<path d="M286.731 299.631H283.644V299.822H286.731V299.631Z" fill="#263238"/>
<path d="M286.731 300.907H283.644V301.098H286.731V300.907Z" fill="#263238"/>
<path d="M286.731 302.184H283.644V302.375H286.731V302.184Z" fill="#263238"/>
<path d="M286.731 303.177H283.644V303.941H286.731V303.177Z" fill="#263238"/>
<path d="M286.731 304.743H283.644V304.934H286.731V304.743Z" fill="#263238"/>
<path d="M286.731 305.729H283.644V306.493H286.731V305.729Z" fill="#263238"/>
<path d="M286.731 307.296H283.644V307.487H286.731V307.296Z" fill="#263238"/>
<path d="M286.731 308.579H283.644V308.77H286.731V308.579Z" fill="#263238"/>
<path d="M286.731 309.855H283.644V310.047H286.731V309.855Z" fill="#263238"/>
<path d="M286.731 311.131H283.644V311.322H286.731V311.131Z" fill="#263238"/>
<path d="M286.731 312.407H283.644V312.599H286.731V312.407Z" fill="#263238"/>
<path d="M286.731 313.692H283.644V313.883H286.731V313.692Z" fill="#263238"/>
<path d="M286.731 314.968H283.644V315.159H286.731V314.968Z" fill="#263238"/>
<path d="M286.731 316.244H283.644V316.435H286.731V316.244Z" fill="#263238"/>
<path d="M286.731 317.237H283.644V318.001H286.731V317.237Z" fill="#263238"/>
<path d="M286.731 318.804H283.644V318.995H286.731V318.804Z" fill="#263238"/>
<path d="M286.731 320.08H283.644V320.271H286.731V320.08Z" fill="#263238"/>
<path d="M286.731 321.356H283.644V321.547H286.731V321.356Z" fill="#263238"/>
<path d="M286.731 322.64H283.644V322.831H286.731V322.64Z" fill="#263238"/>
<path d="M286.731 323.916H283.644V324.107H286.731V323.916Z" fill="#263238"/>
<path d="M286.731 325.192H283.644V325.383H286.731V325.192Z" fill="#263238"/>
<path d="M286.731 326.476H283.644V326.667H286.731V326.476Z" fill="#263238"/>
<path d="M286.731 327.752H283.644V327.943H286.731V327.752Z" fill="#263238"/>
<path d="M286.731 328.746H283.644V329.511H286.731V328.746Z" fill="#263238"/>
<path d="M286.731 330.304H283.644V330.495H286.731V330.304Z" fill="#263238"/>
<path d="M286.731 331.589H283.644V331.78H286.731V331.589Z" fill="#263238"/>
<path d="M286.731 332.864H283.644V333.055H286.731V332.864Z" fill="#263238"/>
<path d="M286.731 334.141H283.644V334.332H286.731V334.141Z" fill="#263238"/>
<path d="M286.731 335.424H283.644V335.615H286.731V335.424Z" fill="#263238"/>
<path d="M286.731 336.701H283.644V336.892H286.731V336.701Z" fill="#263238"/>
<path d="M286.731 247.018H283.644V247.782H286.731V247.018Z" fill="#263238"/>
<path d="M286.731 246.108H283.644V246.299H286.731V246.108Z" fill="#263238"/>
<path d="M286.731 244.917H283.644V245.108H286.731V244.917Z" fill="#263238"/>
<path d="M286.731 243.725H283.644V243.916H286.731V243.725Z" fill="#263238"/>
<path d="M286.731 242.532H283.644V242.723H286.731V242.532Z" fill="#263238"/>
<path d="M286.731 241.34H283.644V241.531H286.731V241.34Z" fill="#263238"/>
<path d="M286.731 240.156H283.644V240.347H286.731V240.156Z" fill="#263238"/>
<path d="M286.731 238.964H283.644V239.155H286.731V238.964Z" fill="#263238"/>
<path d="M286.731 237.481H283.644V238.245H286.731V237.481Z" fill="#263238"/>
<path d="M286.731 236.58H283.644V236.771H286.731V236.58Z" fill="#263238"/>
<path d="M286.731 235.097H283.644V235.861H286.731V235.097Z" fill="#263238"/>
<path d="M286.731 234.195H283.644V234.386H286.731V234.195Z" fill="#263238"/>
<path d="M286.731 233.003H283.644V233.194H286.731V233.003Z" fill="#263238"/>
<path d="M286.731 231.811H283.644V232.002H286.731V231.811Z" fill="#263238"/>
<path d="M286.731 230.619H283.644V230.81H286.731V230.619Z" fill="#263238"/>
<path d="M286.731 229.427H283.644V229.618H286.731V229.427Z" fill="#263238"/>
<path d="M286.731 228.235H283.644V228.426H286.731V228.235Z" fill="#263238"/>
<path d="M286.731 227.043H283.644V227.234H286.731V227.043Z" fill="#263238"/>
<path d="M286.731 225.85H283.644V226.041H286.731V225.85Z" fill="#263238"/>
<path d="M286.731 224.658H283.644V224.849H286.731V224.658Z" fill="#263238"/>
<path d="M286.731 223.183H283.644V223.947H286.731V223.183Z" fill="#263238"/>
<path d="M286.731 222.275H283.644V222.466H286.731V222.275Z" fill="#263238"/>
<path d="M286.731 221.082H283.644V221.273H286.731V221.082Z" fill="#263238"/>
<path d="M286.731 219.897H283.644V220.088H286.731V219.897Z" fill="#263238"/>
<path d="M286.731 218.706H283.644V218.897H286.731V218.706Z" fill="#263238"/>
<path d="M286.731 217.513H283.644V217.704H286.731V217.513Z" fill="#263238"/>
<path d="M286.731 216.321H283.644V216.512H286.731V216.321Z" fill="#263238"/>
<path d="M286.731 215.129H283.644V215.32H286.731V215.129Z" fill="#263238"/>
<path d="M286.731 213.937H283.644V214.128H286.731V213.937Z" fill="#263238"/>
<path d="M286.731 212.454H283.644V213.218H286.731V212.454Z" fill="#263238"/>
<path d="M286.731 211.553H283.644V211.744H286.731V211.553Z" fill="#263238"/>
<path d="M286.731 210.361H283.644V210.552H286.731V210.361Z" fill="#263238"/>
<path d="M286.731 209.169H283.644V209.36H286.731V209.169Z" fill="#263238"/>
<path d="M286.731 207.976H283.644V208.167H286.731V207.976Z" fill="#263238"/>
<path d="M286.731 206.784H283.644V206.975H286.731V206.784Z" fill="#263238"/>
<path d="M286.731 205.593H283.644V205.784H286.731V205.593Z" fill="#263238"/>
<path d="M286.731 204.401H283.644V204.592H286.731V204.401Z" fill="#263238"/>
<path d="M286.731 203.215H283.644V203.406H286.731V203.215Z" fill="#263238"/>
<path d="M277.662 339.475C277.582 339.473 277.506 339.441 277.451 339.387C277.395 339.333 277.364 339.26 277.364 339.184C277.364 318.812 277.315 293.93 277.275 269.874C277.235 245.818 277.187 220.929 277.187 200.549C277.189 200.473 277.222 200.401 277.279 200.348C277.336 200.295 277.413 200.266 277.493 200.266C277.572 200.266 277.648 200.296 277.704 200.349C277.76 200.402 277.791 200.474 277.791 200.549C277.791 220.929 277.839 245.81 277.88 269.867C277.92 293.923 277.968 318.773 277.968 339.184C277.968 339.223 277.961 339.26 277.945 339.296C277.93 339.331 277.907 339.363 277.879 339.39C277.85 339.417 277.817 339.438 277.779 339.453C277.742 339.467 277.702 339.475 277.662 339.475Z" fill="#455A64"/>
<path d="M277.663 234.31C277.599 234.311 277.537 234.292 277.485 234.256C277.42 234.21 277.377 234.142 277.365 234.066C277.353 233.99 277.373 233.913 277.421 233.851L293.584 213.15C293.606 213.119 293.635 213.092 293.669 213.072C293.702 213.052 293.74 213.039 293.779 213.033C293.818 213.027 293.859 213.029 293.897 213.039C293.935 213.048 293.971 213.065 294.003 213.089C294.035 213.111 294.062 213.138 294.082 213.17C294.103 213.202 294.116 213.238 294.122 213.275C294.128 213.312 294.127 213.349 294.117 213.386C294.108 213.422 294.091 213.456 294.067 213.486L277.904 234.195C277.877 234.231 277.841 234.261 277.798 234.281C277.756 234.301 277.71 234.311 277.663 234.31Z" fill="#455A64"/>
<path d="M277.662 223.283C277.599 223.284 277.536 223.265 277.485 223.229C277.453 223.207 277.426 223.18 277.406 223.148C277.385 223.116 277.371 223.08 277.365 223.043C277.359 223.006 277.361 222.969 277.371 222.932C277.38 222.896 277.397 222.862 277.421 222.832L293.583 202.123C293.607 202.093 293.636 202.067 293.669 202.048C293.703 202.028 293.741 202.015 293.779 202.009C293.818 202.004 293.858 202.005 293.897 202.014C293.935 202.023 293.971 202.039 294.003 202.062C294.068 202.107 294.111 202.176 294.123 202.252C294.135 202.328 294.115 202.405 294.067 202.467L277.904 223.176C277.876 223.211 277.839 223.239 277.797 223.257C277.755 223.276 277.709 223.285 277.662 223.283Z" fill="#455A64"/>
<path d="M277.663 245.994C277.599 245.995 277.537 245.977 277.485 245.941C277.42 245.895 277.377 245.827 277.365 245.751C277.353 245.675 277.373 245.598 277.421 245.536L293.584 224.834C293.607 224.804 293.636 224.779 293.67 224.759C293.703 224.74 293.741 224.727 293.78 224.722C293.819 224.716 293.858 224.718 293.897 224.726C293.935 224.735 293.971 224.751 294.003 224.773C294.034 224.795 294.061 224.823 294.082 224.855C294.102 224.887 294.116 224.922 294.122 224.959C294.128 224.996 294.126 225.034 294.117 225.07C294.107 225.106 294.09 225.141 294.067 225.171L277.904 245.88C277.877 245.916 277.841 245.945 277.798 245.965C277.756 245.985 277.71 245.995 277.663 245.994Z" fill="#455A64"/>
<path d="M277.662 257.679C277.599 257.68 277.536 257.661 277.485 257.625C277.453 257.603 277.426 257.575 277.406 257.544C277.385 257.512 277.371 257.476 277.365 257.439C277.359 257.402 277.361 257.365 277.371 257.328C277.38 257.292 277.397 257.258 277.421 257.228L293.583 236.519C293.607 236.489 293.636 236.463 293.67 236.444C293.703 236.424 293.741 236.412 293.78 236.406C293.819 236.4 293.858 236.402 293.896 236.411C293.935 236.42 293.971 236.436 294.003 236.458C294.034 236.48 294.061 236.507 294.082 236.539C294.102 236.571 294.116 236.607 294.122 236.644C294.128 236.681 294.126 236.718 294.116 236.754C294.107 236.791 294.09 236.825 294.067 236.855L277.904 257.564C277.877 257.6 277.84 257.63 277.798 257.65C277.756 257.67 277.709 257.68 277.662 257.679Z" fill="#455A64"/>
<path d="M277.662 269.362C277.599 269.364 277.536 269.345 277.485 269.309C277.453 269.287 277.426 269.259 277.406 269.227C277.385 269.195 277.371 269.16 277.365 269.123C277.359 269.086 277.361 269.048 277.371 269.012C277.38 268.976 277.397 268.942 277.421 268.912L293.583 248.203C293.63 248.142 293.701 248.101 293.78 248.09C293.858 248.078 293.938 248.097 294.003 248.141C294.067 248.186 294.11 248.253 294.122 248.327C294.134 248.402 294.114 248.478 294.067 248.539L277.904 269.248C277.877 269.284 277.84 269.314 277.798 269.333C277.756 269.353 277.709 269.363 277.662 269.362Z" fill="#455A64"/>
<path d="M277.662 281.046C277.599 281.047 277.536 281.028 277.485 280.993C277.453 280.971 277.426 280.943 277.406 280.911C277.385 280.879 277.371 280.844 277.365 280.807C277.359 280.77 277.361 280.732 277.371 280.696C277.38 280.659 277.397 280.625 277.421 280.595L293.583 259.856C293.607 259.825 293.636 259.8 293.669 259.78C293.703 259.761 293.741 259.748 293.779 259.742C293.818 259.736 293.858 259.738 293.897 259.747C293.935 259.756 293.971 259.772 294.003 259.794C294.068 259.84 294.111 259.908 294.123 259.984C294.135 260.06 294.115 260.138 294.067 260.199L277.904 280.931C277.877 280.968 277.84 280.997 277.798 281.017C277.756 281.037 277.709 281.047 277.662 281.046Z" fill="#455A64"/>
<path d="M277.662 292.716C277.607 292.714 277.553 292.699 277.506 292.67C277.459 292.642 277.421 292.602 277.396 292.555C277.372 292.508 277.361 292.456 277.365 292.403C277.369 292.351 277.388 292.3 277.421 292.257L293.583 271.548C293.607 271.518 293.636 271.492 293.67 271.473C293.703 271.453 293.741 271.44 293.78 271.435C293.819 271.429 293.858 271.431 293.897 271.44C293.935 271.449 293.971 271.465 294.003 271.487C294.068 271.533 294.111 271.601 294.123 271.677C294.135 271.753 294.115 271.83 294.067 271.892L277.904 292.616C277.875 292.649 277.838 292.676 277.796 292.693C277.754 292.71 277.708 292.718 277.662 292.716Z" fill="#455A64"/>
<path d="M277.662 304.422C277.607 304.421 277.553 304.405 277.506 304.377C277.459 304.349 277.421 304.309 277.396 304.262C277.372 304.215 277.361 304.162 277.365 304.11C277.369 304.057 277.388 304.007 277.421 303.964L293.583 283.255C293.607 283.225 293.636 283.199 293.67 283.18C293.703 283.16 293.741 283.147 293.78 283.141C293.819 283.136 293.858 283.137 293.897 283.146C293.935 283.155 293.971 283.172 294.003 283.194C294.068 283.24 294.111 283.308 294.123 283.384C294.135 283.46 294.115 283.537 294.067 283.599L277.904 304.3C277.877 304.337 277.841 304.368 277.799 304.389C277.757 304.411 277.71 304.422 277.662 304.422Z" fill="#455A64"/>
<path d="M277.662 316.106C277.607 316.105 277.553 316.089 277.506 316.061C277.459 316.033 277.421 315.993 277.396 315.946C277.372 315.899 277.361 315.846 277.365 315.794C277.369 315.741 277.388 315.691 277.421 315.648L293.583 294.939C293.604 294.902 293.633 294.869 293.668 294.843C293.703 294.818 293.744 294.799 293.787 294.79C293.831 294.781 293.876 294.781 293.919 294.789C293.962 294.798 294.003 294.816 294.039 294.841C294.074 294.866 294.104 294.899 294.125 294.936C294.146 294.973 294.158 295.014 294.161 295.056C294.164 295.098 294.157 295.14 294.14 295.179C294.124 295.218 294.099 295.254 294.067 295.283L277.904 315.992C277.877 316.028 277.84 316.058 277.798 316.078C277.756 316.097 277.71 316.107 277.662 316.106Z" fill="#455A64"/>
<path d="M277.832 327.057C277.767 327.056 277.704 327.034 277.654 326.995C277.622 326.973 277.595 326.946 277.575 326.914C277.554 326.882 277.54 326.846 277.534 326.809C277.528 326.773 277.53 326.735 277.54 326.699C277.549 326.662 277.566 326.628 277.59 326.598L293.583 306.623C293.636 306.575 293.704 306.546 293.777 306.542C293.849 306.538 293.921 306.559 293.979 306.6C294.037 306.641 294.078 306.701 294.094 306.768C294.11 306.835 294.101 306.905 294.067 306.967L278.073 326.942C278.046 326.978 278.01 327.008 277.967 327.028C277.925 327.048 277.879 327.057 277.832 327.057Z" fill="#455A64"/>
<path d="M293.97 339.475H277.662C277.606 339.476 277.552 339.461 277.504 339.432C277.457 339.404 277.42 339.363 277.396 339.315C277.367 339.27 277.352 339.218 277.352 339.166C277.352 339.113 277.367 339.061 277.396 339.017L293.559 318.315C293.582 318.282 293.612 318.253 293.648 318.231V201.015C293.641 200.974 293.643 200.931 293.655 200.89C293.667 200.85 293.688 200.812 293.717 200.78C293.745 200.748 293.781 200.722 293.822 200.705C293.862 200.687 293.906 200.678 293.95 200.678C293.995 200.678 294.038 200.687 294.079 200.705C294.119 200.722 294.155 200.748 294.184 200.78C294.212 200.812 294.233 200.85 294.245 200.89C294.257 200.931 294.26 200.974 294.252 201.015V339.185C294.253 339.258 294.224 339.329 294.171 339.382C294.119 339.436 294.047 339.469 293.97 339.475ZM278.267 338.902H293.704V319.156L278.267 338.902Z" fill="#455A64"/>
<path d="M293.97 232.697C293.923 232.697 293.877 232.687 293.835 232.667C293.793 232.647 293.757 232.618 293.728 232.583L277.332 211.82C277.298 211.759 277.288 211.689 277.304 211.622C277.321 211.554 277.361 211.495 277.419 211.454C277.478 211.412 277.549 211.392 277.622 211.396C277.694 211.4 277.763 211.429 277.815 211.476L294.212 232.239C294.261 232.3 294.282 232.377 294.272 232.452C294.261 232.528 294.219 232.597 294.156 232.644C294.101 232.68 294.036 232.699 293.97 232.697Z" fill="#455A64"/>
<path d="M293.97 221.51C293.923 221.509 293.876 221.497 293.834 221.476C293.792 221.455 293.756 221.424 293.729 221.388L277.606 200.365C277.572 200.303 277.563 200.232 277.58 200.164C277.596 200.096 277.639 200.036 277.698 199.996C277.758 199.955 277.831 199.936 277.905 199.942C277.978 199.948 278.047 199.979 278.098 200.029L294.261 221.051C294.284 221.082 294.3 221.117 294.309 221.153C294.318 221.19 294.319 221.228 294.312 221.265C294.305 221.302 294.291 221.337 294.27 221.369C294.248 221.4 294.221 221.427 294.188 221.449C294.158 221.473 294.123 221.491 294.086 221.501C294.049 221.512 294.009 221.515 293.97 221.51Z" fill="#455A64"/>
<path d="M293.97 244.573C293.923 244.572 293.876 244.56 293.834 244.539C293.792 244.517 293.756 244.487 293.729 244.45L277.606 223.428C277.572 223.366 277.563 223.295 277.58 223.227C277.596 223.159 277.639 223.099 277.698 223.058C277.758 223.017 277.831 222.998 277.905 223.005C277.978 223.011 278.047 223.042 278.098 223.092L294.261 244.114C294.284 244.145 294.301 244.18 294.309 244.218C294.318 244.255 294.32 244.293 294.313 244.331C294.306 244.369 294.292 244.405 294.27 244.437C294.249 244.469 294.221 244.497 294.188 244.519C294.124 244.561 294.047 244.58 293.97 244.573Z" fill="#455A64"/>
<path d="M293.97 256.425C293.923 256.425 293.877 256.415 293.835 256.395C293.793 256.375 293.757 256.346 293.729 256.311L277.332 234.975C277.287 234.914 277.268 234.838 277.28 234.764C277.292 234.69 277.334 234.623 277.396 234.578C277.462 234.534 277.543 234.516 277.623 234.528C277.702 234.539 277.774 234.579 277.824 234.639L294.22 255.974C294.243 256.005 294.26 256.039 294.269 256.076C294.278 256.113 294.279 256.15 294.272 256.187C294.265 256.224 294.251 256.26 294.229 256.291C294.208 256.323 294.18 256.35 294.148 256.372C294.097 256.409 294.034 256.428 293.97 256.425Z" fill="#455A64"/>
<path d="M293.97 268.262C293.923 268.261 293.876 268.249 293.834 268.228C293.792 268.207 293.756 268.176 293.729 268.14L277.606 247.117C277.572 247.055 277.563 246.984 277.58 246.916C277.596 246.848 277.639 246.788 277.698 246.747C277.758 246.707 277.831 246.688 277.905 246.694C277.978 246.7 278.047 246.731 278.098 246.781L294.261 267.803C294.284 267.835 294.301 267.87 294.309 267.907C294.318 267.944 294.32 267.983 294.313 268.02C294.306 268.058 294.292 268.094 294.27 268.126C294.249 268.158 294.221 268.186 294.188 268.208C294.124 268.25 294.047 268.269 293.97 268.262Z" fill="#455A64"/>
<path d="M293.97 280.152C293.923 280.153 293.877 280.142 293.835 280.123C293.793 280.103 293.756 280.074 293.728 280.038L277.581 259.015C277.558 258.984 277.542 258.949 277.533 258.912C277.524 258.875 277.522 258.836 277.529 258.799C277.536 258.761 277.55 258.725 277.572 258.693C277.593 258.66 277.621 258.632 277.654 258.61C277.686 258.589 277.723 258.573 277.761 258.565C277.8 258.556 277.84 258.555 277.879 258.562C277.918 258.568 277.955 258.582 277.989 258.602C278.022 258.622 278.051 258.648 278.073 258.679L294.22 279.724C294.243 279.755 294.259 279.789 294.268 279.826C294.277 279.863 294.278 279.901 294.272 279.938C294.265 279.975 294.25 280.01 294.229 280.042C294.208 280.073 294.18 280.1 294.147 280.122C294.094 280.151 294.031 280.161 293.97 280.152Z" fill="#455A64"/>
<path d="M293.97 292.02C293.923 292.019 293.876 292.007 293.834 291.986C293.792 291.964 293.756 291.934 293.729 291.897L277.606 270.875C277.572 270.813 277.563 270.742 277.58 270.674C277.596 270.606 277.639 270.546 277.698 270.505C277.758 270.464 277.831 270.445 277.905 270.452C277.978 270.458 278.047 270.489 278.098 270.539L294.261 291.561C294.284 291.592 294.301 291.627 294.309 291.665C294.318 291.702 294.32 291.74 294.313 291.778C294.306 291.816 294.292 291.852 294.27 291.884C294.249 291.916 294.221 291.944 294.188 291.966C294.124 292.008 294.047 292.027 293.97 292.02Z" fill="#455A64"/>
<path d="M293.97 303.88C293.923 303.88 293.877 303.87 293.834 303.85C293.792 303.83 293.756 303.801 293.728 303.765L277.581 282.781C277.558 282.75 277.542 282.716 277.533 282.679C277.524 282.643 277.523 282.605 277.53 282.568C277.537 282.531 277.551 282.496 277.572 282.464C277.594 282.432 277.621 282.405 277.654 282.384C277.685 282.36 277.721 282.343 277.76 282.334C277.798 282.324 277.838 282.322 277.878 282.328C277.917 282.334 277.954 282.347 277.988 282.367C278.022 282.387 278.051 282.414 278.073 282.445L294.22 303.414C294.243 303.444 294.259 303.479 294.268 303.515C294.277 303.552 294.278 303.59 294.271 303.627C294.265 303.664 294.25 303.699 294.229 303.731C294.208 303.762 294.18 303.79 294.147 303.811C294.099 303.853 294.036 303.878 293.97 303.88Z" fill="#455A64"/>
<path d="M293.97 315.748C293.922 315.748 293.875 315.737 293.833 315.716C293.79 315.695 293.755 315.663 293.729 315.625L277.606 294.603C277.572 294.541 277.563 294.47 277.58 294.402C277.596 294.334 277.639 294.274 277.698 294.233C277.758 294.192 277.831 294.173 277.905 294.179C277.978 294.186 278.047 294.217 278.098 294.267L294.261 315.289C294.284 315.32 294.301 315.355 294.309 315.392C294.318 315.43 294.32 315.468 294.313 315.506C294.306 315.543 294.292 315.579 294.27 315.612C294.249 315.644 294.221 315.672 294.188 315.694C294.158 315.717 294.123 315.734 294.085 315.743C294.048 315.752 294.009 315.754 293.97 315.748Z" fill="#455A64"/>
<path d="M293.97 327.607C293.923 327.608 293.877 327.597 293.834 327.578C293.792 327.558 293.756 327.529 293.728 327.493L277.581 306.47C277.558 306.44 277.542 306.405 277.533 306.369C277.524 306.332 277.523 306.294 277.53 306.257C277.537 306.22 277.551 306.185 277.572 306.153C277.594 306.122 277.621 306.094 277.654 306.073C277.685 306.05 277.721 306.033 277.76 306.023C277.798 306.014 277.838 306.012 277.878 306.017C277.917 306.023 277.954 306.036 277.988 306.057C278.022 306.077 278.051 306.103 278.073 306.134L294.236 327.157C294.259 327.187 294.275 327.222 294.284 327.258C294.293 327.295 294.294 327.333 294.288 327.37C294.281 327.407 294.266 327.442 294.245 327.474C294.224 327.505 294.196 327.533 294.163 327.554C294.108 327.594 294.039 327.613 293.97 327.607Z" fill="#455A64"/>
<path d="M293.97 339.474C293.923 339.474 293.877 339.464 293.835 339.444C293.793 339.424 293.756 339.395 293.729 339.359L277.606 318.329C277.572 318.268 277.563 318.196 277.58 318.128C277.596 318.06 277.639 318 277.698 317.96C277.758 317.919 277.831 317.9 277.905 317.906C277.978 317.912 278.047 317.943 278.098 317.993L294.261 339.016C294.284 339.047 294.301 339.082 294.309 339.119C294.318 339.156 294.32 339.195 294.313 339.232C294.306 339.27 294.292 339.306 294.27 339.338C294.249 339.371 294.221 339.399 294.188 339.421C294.158 339.444 294.123 339.46 294.085 339.469C294.048 339.479 294.009 339.48 293.97 339.474Z" fill="#455A64"/>
<path d="M280.427 179.87L272.938 173.504C256.558 173.504 239.887 173.504 223.176 173.558C206.465 173.611 189.69 173.604 173.253 173.604V172.84C189.69 172.84 206.433 172.84 223.176 172.794C239.919 172.748 256.663 172.74 273.091 172.74H273.245L280.959 179.266L280.427 179.87Z" fill="#455A64"/>
<path d="M163.192 181.979C163.134 181.981 163.077 181.97 163.024 181.948C162.97 181.925 162.923 181.892 162.886 181.85C162.851 181.812 162.824 181.769 162.807 181.721C162.79 181.674 162.783 181.624 162.787 181.574C162.791 181.524 162.805 181.476 162.829 181.431C162.853 181.386 162.886 181.347 162.926 181.315L172.987 172.97C173.062 172.906 173.16 172.871 173.261 172.871C173.362 172.871 173.46 172.906 173.535 172.97L182.612 181.07L191.923 172.962C191.998 172.896 192.098 172.86 192.201 172.86C192.304 172.86 192.403 172.896 192.479 172.962L201.25 181.062L211.036 172.955C211.109 172.89 211.206 172.853 211.306 172.853C211.406 172.853 211.503 172.89 211.576 172.955L220.734 181.062L230.407 172.947C230.48 172.882 230.577 172.846 230.677 172.846C230.777 172.846 230.874 172.882 230.947 172.947L239.879 181.055L249.553 172.939C249.628 172.875 249.726 172.84 249.827 172.84C249.928 172.84 250.025 172.875 250.101 172.939L258.968 181.032L268.126 172.939C268.199 172.874 268.296 172.838 268.396 172.838C268.496 172.838 268.593 172.874 268.666 172.939L278.573 181.284C278.611 181.32 278.641 181.362 278.661 181.408C278.682 181.455 278.692 181.505 278.692 181.555C278.692 181.606 278.682 181.656 278.661 181.702C278.641 181.749 278.611 181.791 278.573 181.827C278.498 181.897 278.397 181.936 278.291 181.936C278.186 181.936 278.084 181.897 278.009 181.827L268.376 173.711L259.21 181.911C259.135 181.978 259.035 182.016 258.932 182.016C258.828 182.016 258.729 181.978 258.654 181.911L249.786 173.81L240.097 181.911C240.023 181.974 239.926 182.009 239.827 182.009C239.727 182.009 239.631 181.974 239.557 181.911L230.625 173.803L221 181.911C220.926 181.976 220.83 182.012 220.73 182.012C220.629 182.012 220.533 181.976 220.46 181.911L211.294 173.803L201.499 181.911C201.424 181.975 201.326 182.01 201.225 182.01C201.124 182.01 201.027 181.975 200.951 181.911L192.189 173.818L182.878 181.911C182.803 181.976 182.705 182.013 182.604 182.013C182.502 182.013 182.404 181.976 182.33 181.911L173.245 173.803L163.458 181.911C163.38 181.96 163.286 181.984 163.192 181.979Z" fill="#455A64"/>
<path d="M321.548 193.343H338.42V174.514H321.548V193.343Z" fill="#263238"/>
<path d="M332.979 193.373C332.858 193.373 332.769 189.155 332.769 183.959C332.769 178.762 332.858 174.537 332.979 174.537C333.1 174.537 333.189 178.755 333.189 183.959C333.189 189.163 333.092 193.373 332.979 193.373Z" fill="#263238"/>
<path d="M326.482 193.373C326.369 193.373 326.272 189.155 326.272 183.959C326.272 178.762 326.369 174.537 326.482 174.537C326.595 174.537 326.692 178.755 326.692 183.959C326.692 189.163 326.595 193.373 326.482 193.373Z" fill="#263238"/>
<path d="M340 182.132H162.991V179.389H340V182.132ZM163.394 181.75H339.597V179.771H163.394V181.75Z" fill="#455A64"/>
<path d="M280.693 182.132C280.66 182.132 280.628 182.124 280.598 182.11C280.569 182.095 280.543 182.074 280.524 182.048C280.509 182.027 280.499 182.004 280.493 181.979C280.488 181.954 280.488 181.928 280.493 181.903C280.498 181.878 280.509 181.855 280.524 181.834C280.539 181.813 280.558 181.795 280.581 181.781L289.94 175.797C289.962 175.783 289.987 175.773 290.013 175.768C290.039 175.763 290.066 175.763 290.093 175.768C290.119 175.773 290.144 175.783 290.166 175.797C290.188 175.811 290.207 175.83 290.222 175.851C290.237 175.871 290.247 175.894 290.252 175.918C290.258 175.943 290.258 175.968 290.252 175.992C290.247 176.016 290.237 176.039 290.222 176.06C290.207 176.08 290.188 176.097 290.165 176.111L280.806 182.094C280.773 182.117 280.734 182.13 280.693 182.132Z" fill="#455A64"/>
<path d="M280.694 182.086C280.667 182.084 280.641 182.076 280.618 182.063C280.595 182.051 280.574 182.034 280.558 182.015C280.541 181.995 280.529 181.972 280.522 181.947C280.515 181.923 280.513 181.898 280.516 181.872L282.62 166.344C282.612 166.312 282.612 166.278 282.62 166.245V166.207L283.942 156.426L284.378 153.239L285.305 146.423C285.311 146.376 285.334 146.333 285.372 146.302C285.409 146.271 285.457 146.254 285.506 146.254H286.312C286.362 146.254 286.41 146.271 286.447 146.302C286.484 146.333 286.508 146.376 286.514 146.423L286.925 149.479L287.425 153.193L287.852 156.38L291.286 181.911C291.291 181.948 291.284 181.986 291.267 182.019C291.25 182.053 291.223 182.082 291.189 182.102C291.157 182.121 291.119 182.131 291.081 182.131C291.042 182.131 291.005 182.121 290.972 182.102L281.725 176.049L280.919 181.964C280.902 182.006 280.87 182.04 280.829 182.062C280.788 182.085 280.74 182.093 280.694 182.086ZM282.306 175.973L290.786 181.529L289.311 170.54H282.862L289.891 175.79C289.927 175.813 289.952 175.847 289.964 175.886C289.976 175.925 289.973 175.966 289.956 176.004C289.942 176.04 289.917 176.071 289.884 176.093C289.851 176.115 289.811 176.126 289.771 176.126L282.306 175.973ZM281.75 175.583L289.198 175.736L282.419 170.639L281.75 175.583ZM282.483 170.158H288.779L282.959 166.627L282.483 170.158ZM283.475 166.52L289.23 169.974L288.763 166.52H283.475ZM283.023 166.138H288.247L283.41 163.158L283.023 166.138ZM283.95 163.02L288.69 165.955L288.295 163.02H283.95ZM283.499 162.638H287.844L283.87 159.887L283.499 162.638ZM284.305 159.734L288.191 162.424L287.828 159.734H284.305ZM283.918 159.352H287.433L284.257 156.846L283.918 159.352ZM284.66 156.67L287.739 159.092L287.409 156.647L284.66 156.67ZM284.66 153.705L284.313 156.288H287.11L284.66 153.705ZM284.966 153.461L287.288 155.875L286.957 153.453L284.966 153.461ZM285.143 150.113L284.74 153.078H286.804L285.143 150.113ZM285.369 149.693L286.796 152.245L286.457 149.724L285.369 149.693ZM285.256 149.303H286.401L286.038 146.606H285.643L285.256 149.303Z" fill="#455A64"/>
<path d="M284.555 153.461H284.458C284.435 153.449 284.414 153.432 284.397 153.413C284.381 153.393 284.368 153.371 284.361 153.347C284.353 153.322 284.351 153.297 284.354 153.272C284.357 153.247 284.365 153.223 284.377 153.201L286.481 149.433C286.512 149.398 286.555 149.373 286.602 149.364C286.65 149.355 286.699 149.362 286.742 149.384C286.785 149.406 286.818 149.441 286.837 149.483C286.856 149.526 286.858 149.573 286.844 149.617L284.732 153.376C284.713 153.404 284.686 153.426 284.655 153.441C284.624 153.455 284.589 153.462 284.555 153.461Z" fill="#455A64"/>
<path d="M284.119 156.693C284.095 156.694 284.071 156.69 284.048 156.68C284.026 156.671 284.006 156.657 283.99 156.64C283.971 156.623 283.956 156.602 283.945 156.579C283.935 156.556 283.929 156.531 283.929 156.506C283.929 156.481 283.935 156.456 283.945 156.433C283.956 156.41 283.971 156.389 283.99 156.372L287.045 153.193C287.083 153.158 287.134 153.139 287.187 153.139C287.239 153.139 287.29 153.158 287.328 153.193C287.347 153.211 287.363 153.232 287.373 153.256C287.384 153.28 287.389 153.305 287.389 153.331C287.389 153.357 287.384 153.382 287.373 153.406C287.363 153.429 287.347 153.451 287.328 153.468L284.28 156.647C284.258 156.665 284.232 156.678 284.205 156.686C284.177 156.693 284.148 156.696 284.119 156.693Z" fill="#455A64"/>
<path d="M283.724 159.75C283.683 159.749 283.643 159.737 283.61 159.715C283.576 159.692 283.551 159.66 283.537 159.624C283.523 159.587 283.521 159.548 283.531 159.51C283.542 159.472 283.564 159.439 283.595 159.413L287.481 156.357C287.499 156.338 287.521 156.324 287.545 156.314C287.569 156.304 287.595 156.299 287.622 156.299C287.648 156.299 287.674 156.304 287.699 156.314C287.723 156.324 287.745 156.338 287.763 156.357C287.8 156.392 287.821 156.44 287.821 156.49C287.821 156.54 287.8 156.588 287.763 156.624L283.877 159.681C283.858 159.701 283.834 159.718 283.808 159.73C283.782 159.742 283.753 159.748 283.724 159.75Z" fill="#455A64"/>
<path d="M283.281 163.028C283.248 163.029 283.216 163.023 283.186 163.01C283.157 162.996 283.131 162.976 283.112 162.952C283.096 162.931 283.085 162.908 283.079 162.883C283.073 162.859 283.073 162.833 283.077 162.808C283.082 162.783 283.091 162.76 283.106 162.738C283.12 162.717 283.138 162.699 283.16 162.684L287.908 159.398C287.951 159.377 288 159.372 288.047 159.382C288.094 159.393 288.135 159.419 288.163 159.456C288.191 159.493 288.205 159.538 288.201 159.584C288.197 159.629 288.176 159.672 288.142 159.704L283.394 162.997C283.361 163.019 283.321 163.03 283.281 163.028Z" fill="#455A64"/>
<path d="M282.806 166.528C282.773 166.528 282.741 166.521 282.713 166.506C282.685 166.491 282.661 166.47 282.644 166.444C282.629 166.423 282.619 166.399 282.613 166.374C282.608 166.349 282.608 166.324 282.613 166.299C282.619 166.274 282.629 166.25 282.644 166.229C282.659 166.208 282.678 166.19 282.701 166.176L288.344 162.684C288.387 162.667 288.435 162.665 288.48 162.678C288.525 162.691 288.563 162.719 288.589 162.756C288.615 162.793 288.626 162.837 288.621 162.881C288.616 162.925 288.595 162.966 288.561 162.997L282.918 166.497C282.885 166.519 282.846 166.53 282.806 166.528Z" fill="#455A64"/>
<path d="M282.265 170.548C282.221 170.549 282.178 170.536 282.143 170.511C282.108 170.487 282.082 170.452 282.069 170.413C282.056 170.373 282.057 170.33 282.072 170.291C282.087 170.252 282.115 170.219 282.152 170.196L288.843 166.177C288.889 166.151 288.945 166.143 288.997 166.154C289.05 166.165 289.096 166.195 289.125 166.238C289.14 166.259 289.15 166.282 289.154 166.307C289.159 166.332 289.158 166.357 289.152 166.381C289.146 166.405 289.135 166.428 289.119 166.448C289.104 166.469 289.084 166.485 289.061 166.498L282.37 170.525C282.337 170.54 282.301 170.548 282.265 170.548Z" fill="#455A64"/>
<path d="M281.612 175.935C281.58 175.933 281.549 175.925 281.521 175.911C281.494 175.896 281.469 175.876 281.451 175.851C281.436 175.83 281.425 175.807 281.419 175.782C281.413 175.758 281.412 175.732 281.416 175.708C281.421 175.683 281.431 175.659 281.445 175.638C281.459 175.616 281.478 175.598 281.499 175.583L289.279 170.234C289.3 170.22 289.325 170.209 289.351 170.204C289.377 170.198 289.403 170.197 289.43 170.202C289.456 170.206 289.481 170.215 289.503 170.229C289.526 170.242 289.545 170.259 289.561 170.28C289.576 170.301 289.587 170.324 289.593 170.348C289.599 170.373 289.599 170.398 289.595 170.423C289.59 170.448 289.581 170.472 289.567 170.493C289.553 170.514 289.534 170.533 289.512 170.548L281.733 175.897C281.698 175.922 281.656 175.935 281.612 175.935Z" fill="#455A64"/>
<path d="M285.869 189.896C285.816 189.894 285.766 189.874 285.728 189.838C285.691 189.803 285.669 189.755 285.667 189.705V145.903C285.669 145.853 285.691 145.805 285.728 145.77C285.766 145.735 285.816 145.714 285.869 145.712C285.922 145.712 285.974 145.732 286.011 145.768C286.049 145.804 286.071 145.852 286.071 145.903V189.705C286.071 189.756 286.049 189.804 286.011 189.84C285.974 189.876 285.922 189.896 285.869 189.896Z" fill="#455A64"/>
<path d="M287.707 197.271H292.463V181.934H287.707V197.271Z" fill="#263238"/>
<path d="M276.59 197.469H289.432V189.407H276.59V197.469Z" fill="#263238"/>
<path d="M292.189 197.469H296.219V191.104H292.189V197.469Z" fill="#263238"/>
<path d="M275.381 202.749H295.994V199.884H275.381V202.749Z" fill="#263238"/>
<path d="M277.598 198.699H294.204V197.11H277.598V198.699Z" fill="#263238"/>
<path d="M278.444 199.884H293.317V198.424H278.444V199.884Z" fill="#263238"/>
<path d="M293.978 239.735H277.573V241.264H293.978V239.735Z" fill="#455A64"/>
<path d="M293.978 274.185H277.662V275.713H293.978V274.185Z" fill="#455A64"/>
<path d="M293.978 310.467H277.662V311.995H293.978V310.467Z" fill="#455A64"/>
<path d="M337.154 176.5L285.788 146.453L201.846 173.405L201.717 173.046L285.836 146.033L285.917 146.079L337.372 176.172L337.154 176.5Z" fill="#455A64"/>
<path d="M339.903 179.55H339.702V176.432H291.882V179.55H291.681V176.241H339.903V179.55Z" fill="#455A64"/>
<path d="M337.364 176.34H337.162V179.473H337.364V176.34Z" fill="#455A64"/>
<path d="M335.196 176.34H334.994V179.473H335.196V176.34Z" fill="#455A64"/>
<path d="M333.027 176.34H332.825V179.473H333.027V176.34Z" fill="#455A64"/>
<path d="M330.859 176.34H330.657V179.473H330.859V176.34Z" fill="#455A64"/>
<path d="M328.69 176.34H328.489V179.473H328.69V176.34Z" fill="#455A64"/>
<path d="M326.522 176.34H326.32V179.473H326.522V176.34Z" fill="#455A64"/>
<path d="M324.353 176.34H324.151V179.473H324.353V176.34Z" fill="#455A64"/>
<path d="M322.185 176.34H321.983V179.473H322.185V176.34Z" fill="#455A64"/>
<path d="M320.016 176.34H319.814V179.473H320.016V176.34Z" fill="#455A64"/>
<path d="M317.848 176.34H317.646V179.473H317.848V176.34Z" fill="#455A64"/>
<path d="M315.688 176.34H315.486V179.473H315.688V176.34Z" fill="#455A64"/>
<path d="M313.519 176.34H313.317V179.473H313.519V176.34Z" fill="#455A64"/>
<path d="M311.351 176.34H311.149V179.473H311.351V176.34Z" fill="#455A64"/>
<path d="M309.182 176.34H308.98V179.473H309.182V176.34Z" fill="#455A64"/>
<path d="M307.014 176.34H306.812V179.473H307.014V176.34Z" fill="#455A64"/>
<path d="M304.845 176.34H304.643V179.473H304.845V176.34Z" fill="#455A64"/>
<path d="M302.677 176.34H302.475V179.473H302.677V176.34Z" fill="#455A64"/>
<path d="M300.508 176.34H300.306V179.473H300.508V176.34Z" fill="#455A64"/>
<path d="M298.34 176.34H298.138V179.473H298.34V176.34Z" fill="#455A64"/>
<path d="M296.171 176.34H295.969V179.473H296.171V176.34Z" fill="#455A64"/>
<path d="M294.003 176.34H293.801V179.473H294.003V176.34Z" fill="#455A64"/>
<path d="M303.378 181.942H307.763V179.588H303.378V181.942Z" fill="#455A64"/>
<path d="M294.027 181.942H298.412V179.588H294.027V181.942Z" fill="#455A64"/>
<path d="M269.303 181.942H273.688V179.588H269.303V181.942Z" fill="#455A64"/>
<path d="M256.711 181.942H261.096V179.588H256.711V181.942Z" fill="#455A64"/>
<path d="M244.119 181.942H248.505V179.588H244.119V181.942Z" fill="#455A64"/>
<path d="M231.528 181.942H235.913V179.588H231.528V181.942Z" fill="#455A64"/>
<path d="M218.936 181.942H223.321V179.588H218.936V181.942Z" fill="#455A64"/>
<path d="M206.336 181.942H210.721V179.588H206.336V181.942Z" fill="#455A64"/>
<path d="M193.745 181.942H198.13V179.588H193.745V181.942Z" fill="#455A64"/>
<path d="M181.153 181.942H185.538V179.588H181.153V181.942Z" fill="#455A64"/>
<path d="M168.561 181.942H172.947V179.588H168.561V181.942Z" fill="#FF725E"/>
<path d="M312.978 181.942H317.364V179.588H312.978V181.942Z" fill="#455A64"/>
<path d="M322.596 181.942H326.981V179.588H322.596V181.942Z" fill="#455A64"/>
<path d="M332.197 181.942H336.582V179.588H332.197V181.942Z" fill="#455A64"/>
<path d="M286.383 146.218L286.147 146.528L329.855 176.476L330.091 176.166L286.383 146.218Z" fill="#455A64"/>
<path d="M162.886 184.494C163.897 184.494 164.716 183.717 164.716 182.759C164.716 181.801 163.897 181.024 162.886 181.024C161.875 181.024 161.056 181.801 161.056 182.759C161.056 183.717 161.875 184.494 162.886 184.494Z" fill="#263238"/>
<path d="M168.561 182.759C168.563 183.101 168.672 183.436 168.874 183.72C169.076 184.005 169.362 184.226 169.696 184.356C170.031 184.486 170.399 184.519 170.753 184.451C171.108 184.384 171.433 184.218 171.688 183.975C171.943 183.732 172.117 183.423 172.187 183.087C172.256 182.75 172.22 182.402 172.081 182.085C171.942 181.769 171.708 181.498 171.407 181.308C171.106 181.118 170.753 181.016 170.391 181.016C170.15 181.016 169.912 181.061 169.689 181.149C169.467 181.237 169.264 181.365 169.094 181.527C168.924 181.689 168.79 181.881 168.698 182.093C168.607 182.304 168.56 182.53 168.561 182.759Z" fill="#263238"/>
<path d="M173.253 179.114H162.886V182.255H173.253V179.114Z" fill="#455A64"/>
<path d="M273.019 344.609H299.25V337.915H273.019V344.609Z" fill="#E0E0E0"/>
<path d="M273.019 342.042H299.25V340.407H273.019V342.042Z" fill="white"/>
<path d="M299.25 340.399L298.549 342.042H297.195L297.985 340.399H299.25Z" fill="#FF725E"/>
<path d="M296.598 340.399L295.889 342.042H294.542L295.332 340.399H296.598Z" fill="#FF725E"/>
<path d="M293.946 340.399L293.236 342.042H291.89L292.68 340.399H293.946Z" fill="#FF725E"/>
<path d="M291.286 340.399L290.585 342.042H289.238L290.02 340.399H291.286Z" fill="#FF725E"/>
<path d="M288.633 340.399L287.932 342.042H286.586L287.368 340.399H288.633Z" fill="#FF725E"/>
<path d="M285.981 340.399L285.28 342.042H283.926L284.716 340.399H285.981Z" fill="#FF725E"/>
<path d="M283.329 340.399L282.62 342.042H281.274L282.064 340.399H283.329Z" fill="#FF725E"/>
<path d="M280.677 340.399L279.968 342.042H278.622L279.404 340.399H280.677Z" fill="#FF725E"/>
<path d="M278.017 340.399L277.315 342.042H275.969L276.751 340.399H278.017Z" fill="#FF725E"/>
<path d="M275.365 340.399L274.664 342.042H273.309L274.099 340.399H275.365Z" fill="#FF725E"/>
<path d="M272.85 340.421C272.85 340.314 278.767 340.223 286.071 340.223C293.374 340.223 299.291 340.314 299.291 340.421C299.291 340.528 293.374 340.62 286.071 340.62C278.767 340.62 272.85 340.536 272.85 340.421Z" fill="#263238"/>
<path d="M272.85 342.134C272.85 342.02 278.767 341.936 286.071 341.936C293.374 341.936 299.291 342.02 299.291 342.134C299.291 342.249 293.374 342.333 286.071 342.333C278.767 342.333 272.85 342.241 272.85 342.134Z" fill="#263238"/>
<path d="M285.046 147.004H286.586V145.544H285.046V147.004Z" fill="#455A64"/>
<path d="M279.113 181.911C278.537 182.014 278.02 182.312 277.659 182.749C277.297 183.186 277.115 183.733 277.146 184.288V189.423H287.836L287.699 181.957L279.113 181.911Z" fill="#455A64"/>
<path d="M279.113 181.911C279.313 181.875 279.515 181.86 279.718 181.865L281.459 181.827L287.699 181.789H287.876V181.911C287.932 184.096 287.981 186.641 288.045 189.369V189.575H286.264H277.138H276.953V189.407C276.953 188.146 276.953 186.993 276.953 185.953C276.953 185.444 276.953 184.962 276.953 184.509C276.932 184.088 276.998 183.668 277.146 183.271C277.258 182.994 277.428 182.742 277.646 182.529C277.863 182.316 278.124 182.148 278.412 182.033C278.609 181.937 278.828 181.889 279.049 181.896C279.049 181.896 278.831 181.957 278.46 182.132C277.941 182.386 277.543 182.818 277.348 183.34C277.222 183.717 277.173 184.114 277.203 184.509C277.203 184.962 277.203 185.444 277.203 185.953C277.203 186.993 277.203 188.146 277.203 189.407L277.026 189.232H286.151H287.715L287.505 189.43C287.505 186.702 287.433 184.157 287.4 181.972L287.578 182.132L281.346 182.033L279.605 181.972C279.439 181.97 279.274 181.949 279.113 181.911Z" fill="#263238"/>
<path d="M280.629 183.913C282.208 184.801 283.633 185.914 284.853 187.214C284.025 186.818 283.266 186.302 282.604 185.686C281.857 185.191 281.191 184.594 280.629 183.913Z" fill="#263238"/>
<path d="M280.323 185.418C280.395 185.334 281.129 185.816 281.975 186.488C282.822 187.161 283.434 187.78 283.354 187.864C283.273 187.948 282.547 187.474 281.701 186.794C280.855 186.114 280.242 185.503 280.323 185.418Z" fill="#263238"/>
<path d="M292.325 197.469C292.114 194.927 292.044 192.376 292.116 189.827C292.044 187.278 292.114 184.727 292.325 182.185C292.532 184.728 292.602 187.278 292.535 189.827C292.602 192.376 292.532 194.927 292.325 197.469Z" fill="#455A64"/>
<path d="M277.485 197.469C277.485 197.362 281.298 197.271 285.99 197.271C290.682 197.271 294.495 197.362 294.495 197.469C294.495 197.576 290.69 197.668 285.99 197.668C281.29 197.668 277.485 197.576 277.485 197.469Z" fill="#455A64"/>
<path d="M277.485 198.722C277.485 198.615 281.234 198.524 285.845 198.524C290.456 198.524 294.204 198.615 294.204 198.722C291.423 198.924 288.633 198.99 285.845 198.921C283.057 198.99 280.266 198.924 277.485 198.722Z" fill="#455A64"/>
<path d="M277.485 199.892C280.266 199.69 283.057 199.624 285.845 199.693C288.633 199.624 291.423 199.69 294.204 199.892C294.204 199.999 290.464 200.09 285.845 200.09C281.226 200.09 277.485 199.999 277.485 199.892Z" fill="#455A64"/>
<path d="M200.145 173.252H206.07V172.183H200.145V173.252Z" fill="#455A64"/>
<path d="M31.1165 326.515H0V344.824H31.1165V326.515Z" fill="#FF725E"/>
<path d="M62.2412 335.088H31.1248V344.823H62.2412V335.088Z" fill="#455A64"/>
<path d="M207.981 325.239H176.865V344.679H207.981V325.239Z" fill="#FF725E"/>
<path d="M239.105 334.936H207.989V344.671H239.105V334.936Z" fill="#455A64"/>
<path d="M218.638 315.495H187.521V325.231H218.638V315.495Z" fill="#455A64"/>
<path d="M239.105 325.239H207.989V334.974H239.105V325.239Z" fill="#263238"/>
</svg>
