<svg width="24" height="24" viewBox="0 0 24 24" fill="none" xmlns="http://www.w3.org/2000/svg">
<path d="M0 0H20.16C21.1784 0 22.1551 0.40457 22.8753 1.12471C23.5954 1.84485 24 2.82157 24 3.84V20.16C24 21.1784 23.5954 22.1552 22.8753 22.8753C22.1551 23.5954 21.1784 24 20.16 24H3.84C2.82157 24 1.84485 23.5954 1.12471 22.8753C0.40457 22.1552 0 21.1784 0 20.16V0Z" fill="#663399"/>
<path d="M6.07201 19.608V15.576C6.07201 13.968 7.10401 13.104 8.66401 13.104C10.2 13.08 11.16 14.088 11.112 15.792H9.33601C9.38401 15.144 9.09601 14.664 8.61601 14.688C8.01601 14.688 7.84801 15.096 7.84801 15.864V19.368C7.84801 20.112 8.08801 20.472 8.61601 20.496C9.16801 20.496 9.38401 19.944 9.33601 19.32H11.112C11.208 21.072 10.104 22.104 8.54401 22.08C7.03201 22.08 6.07201 21.24 6.07201 19.608ZM11.76 19.32H13.416C13.44 20.088 13.68 20.568 14.208 20.568C14.736 20.568 14.928 20.256 14.928 19.536C14.928 18.936 14.664 18.6 14.016 18.288L13.392 18C12.288 17.472 11.832 16.824 11.832 15.528C11.832 14.088 12.744 13.08 14.232 13.08C15.72 13.08 16.512 14.112 16.536 15.792H14.928C14.928 15.096 14.784 14.616 14.256 14.616C13.776 14.616 13.536 14.856 13.536 15.456C13.536 16.056 13.752 16.296 14.328 16.536L14.904 16.8C16.128 17.376 16.656 18.12 16.656 19.512C16.656 21.168 15.72 22.08 14.184 22.08C12.648 22.08 11.784 21.024 11.76 19.32ZM17.184 19.32H18.864C18.864 20.088 19.128 20.568 19.632 20.568C20.136 20.568 20.352 20.256 20.352 19.536C20.352 18.936 20.112 18.6 19.44 18.288L18.816 18C17.712 17.472 17.28 16.824 17.28 15.528C17.28 14.088 18.168 13.08 19.68 13.08C21.192 13.08 21.936 14.112 21.984 15.792H20.376C20.352 15.096 20.208 14.616 19.68 14.616C19.2 14.616 18.984 14.856 18.984 15.456C18.984 16.056 19.176 16.296 19.752 16.536L20.352 16.8C21.552 17.376 22.08 18.12 22.08 19.512C22.08 21.168 21.144 22.08 19.608 22.08C18.072 22.08 17.208 21.024 17.184 19.32Z" fill="white"/>
</svg>
