<svg width="46" height="46" viewBox="0 0 46 46" fill="none" xmlns="http://www.w3.org/2000/svg">
<path d="M27.1665 4.8105C27.1665 3.35008 25.9832 2.16675 24.5228 2.16675H21.479C20.0165 2.16675 18.8332 3.35008 18.8332 4.8105C18.8332 6.01466 18.0082 7.048 16.8853 7.48966C16.7075 7.56189 16.5318 7.6355 16.3582 7.7105C15.2519 8.18966 13.9373 8.04383 13.0832 7.19175C12.5872 6.69686 11.9151 6.41894 11.2144 6.41894C10.5137 6.41894 9.84169 6.69686 9.34567 7.19175L7.1915 9.34591C6.69662 9.84193 6.41869 10.514 6.41869 11.2147C6.41869 11.9153 6.69662 12.5874 7.1915 13.0834C8.04567 13.9376 8.1915 15.2501 7.70817 16.3584C7.63225 16.5328 7.55932 16.7086 7.48942 16.8855C7.04775 18.0084 6.01442 18.8334 4.81025 18.8334C3.34984 18.8334 2.1665 20.0167 2.1665 21.4772V24.523C2.1665 25.9834 3.34984 27.1667 4.81025 27.1667C6.01442 27.1667 7.04775 27.9917 7.48942 29.1147C7.56164 29.2924 7.63456 29.4681 7.70817 29.6417C8.18942 30.748 8.04359 32.0626 7.1915 32.9167C6.69662 33.4128 6.41869 34.0848 6.41869 34.7855C6.41869 35.4862 6.69662 36.1582 7.1915 36.6542L9.34567 38.8084C9.84169 39.3033 10.5137 39.5812 11.2144 39.5812C11.9151 39.5812 12.5872 39.3033 13.0832 38.8084C13.9373 37.9542 15.2498 37.8084 16.3582 38.2897C16.5318 38.3661 16.7075 38.4397 16.8853 38.5105C18.0082 38.9522 18.8332 39.9855 18.8332 41.1897C18.8332 42.6501 20.0165 43.8334 21.4769 43.8334H24.5228C25.9832 43.8334 27.1665 42.6501 27.1665 41.1897C27.1665 39.9855 27.9915 38.9522 29.1144 38.5084C29.2922 38.439 29.4679 38.3667 29.6415 38.2917C30.7478 37.8084 32.0623 37.9563 32.9144 38.8084C33.4105 39.3039 34.083 39.5823 34.7842 39.5823C35.4854 39.5823 36.1579 39.3039 36.654 38.8084L38.8082 36.6542C39.3031 36.1582 39.581 35.4862 39.581 34.7855C39.581 34.0848 39.3031 33.4128 38.8082 32.9167C37.954 32.0626 37.8082 30.7501 38.2894 29.6417C38.3658 29.4681 38.4394 29.2924 38.5103 29.1147C38.9519 27.9917 39.9853 27.1667 41.1894 27.1667C42.6498 27.1667 43.8332 25.9834 43.8332 24.523V21.4792C43.8332 20.0188 42.6498 18.8355 41.1894 18.8355C39.9853 18.8355 38.9519 18.0105 38.5082 16.8876C38.4383 16.7107 38.3653 16.5349 38.2894 16.3605C37.8103 15.2542 37.9561 13.9397 38.8082 13.0855C39.3031 12.5895 39.581 11.9174 39.581 11.2167C39.581 10.5161 39.3031 9.84401 38.8082 9.348L36.654 7.19383C36.158 6.69895 35.4859 6.42102 34.7853 6.42102C34.0846 6.42102 33.4125 6.69895 32.9165 7.19383C32.0623 8.048 30.7498 8.19383 29.6415 7.71258C29.4671 7.63596 29.2914 7.56234 29.1144 7.49175C27.9915 7.048 27.1665 6.01258 27.1665 4.8105Z" stroke="white" stroke-opacity="0.3" stroke-width="4.16667"/>
<path d="M31.3332 23.0001C31.3332 25.2102 30.4552 27.3298 28.8924 28.8926C27.3296 30.4554 25.21 31.3334 22.9998 31.3334C20.7897 31.3334 18.6701 30.4554 17.1073 28.8926C15.5445 27.3298 14.6665 25.2102 14.6665 23.0001C14.6665 20.7899 15.5445 18.6703 17.1073 17.1075C18.6701 15.5447 20.7897 14.6667 22.9998 14.6667C25.21 14.6667 27.3296 15.5447 28.8924 17.1075C30.4552 18.6703 31.3332 20.7899 31.3332 23.0001Z" stroke="white" stroke-opacity="0.3" stroke-width="4.16667"/>
</svg>
