<svg width="51" height="51" viewBox="0 0 51 51" fill="none" xmlns="http://www.w3.org/2000/svg">
<path d="M38.4319 0.150635H11.8694C5.3973 0.150635 0.150635 5.3973 0.150635 11.8694V38.4319C0.150635 44.904 5.3973 50.1506 11.8694 50.1506H38.4319C44.904 50.1506 50.1506 44.904 50.1506 38.4319V11.8694C50.1506 5.3973 44.904 0.150635 38.4319 0.150635Z" fill="#F03C2E"/>
<mask id="mask0_112_1940" style="mask-type:luminance" maskUnits="userSpaceOnUse" x="5" y="5" width="40" height="40">
<path d="M5.61938 5.61938H44.6819V44.6819H5.61938V5.61938Z" fill="white"/>
</mask>
<g mask="url(#mask0_112_1940)">
<path d="M43.9445 23.4111L26.89 6.35659C26.5384 6.00458 26.0902 5.76484 25.6022 5.66773C25.1143 5.57062 24.6084 5.62051 24.1488 5.81109C23.8438 5.93769 23.5666 6.12304 23.333 6.35659L19.793 9.89663L24.2851 14.3888C25.3301 14.0226 26.5264 14.2728 27.3588 15.1054C27.7551 15.5024 28.0318 16.0029 28.1572 16.5496C28.2826 17.0964 28.2517 17.6674 28.068 18.1974L32.3978 22.5273C33.4453 22.166 34.6537 22.399 35.4898 23.2376C35.9087 23.6563 36.1939 24.1898 36.3094 24.7706C36.4249 25.3515 36.3654 25.9535 36.1385 26.5005C35.8343 27.2339 35.2514 27.8165 34.5178 28.1203C33.7843 28.424 32.9601 28.424 32.2266 28.1203C31.8633 27.9697 31.5332 27.7492 31.2553 27.471C30.3764 26.5921 30.1592 25.2982 30.6035 24.2154L26.5654 20.1773V30.8037C26.8586 30.9487 27.1264 31.1399 27.3588 31.3701C27.9202 31.9315 28.2355 32.6929 28.2355 33.4868C28.2355 34.2807 27.9202 35.0421 27.3588 35.6035C26.7974 36.1649 26.036 36.4802 25.2421 36.4802C24.4482 36.4802 23.6868 36.1649 23.1254 35.6035C22.7064 35.185 22.4211 34.6516 22.3054 34.0708C22.1898 33.49 22.2491 32.888 22.4758 32.341C22.6263 31.9778 22.8471 31.6478 23.1254 31.3701C23.4146 31.082 23.7357 30.8634 24.1057 30.7169V19.9917C23.7386 19.8418 23.4053 19.6197 23.1254 19.3388C22.7051 18.919 22.4193 18.3835 22.3045 17.8006C22.1898 17.2177 22.2511 16.6138 22.4809 16.066L18.0498 11.6376L6.35546 23.3197C6.00341 23.6715 5.76363 24.1198 5.66646 24.6079C5.56928 25.0961 5.61909 25.6021 5.80956 26.0619C5.93624 26.3671 6.12173 26.6444 6.35546 26.8781L23.4111 43.9312C23.6447 44.1648 23.9219 44.3501 24.2269 44.4767C24.8434 44.7316 25.5358 44.7316 26.1523 44.4767C26.4574 44.3501 26.7346 44.1648 26.9682 43.9312L43.9445 26.9818C44.1783 26.7482 44.3637 26.4709 44.4903 26.1656C44.6168 25.8603 44.682 25.5331 44.682 25.2027C44.682 24.8722 44.6169 24.545 44.4903 24.2397C44.3638 23.9344 44.1783 23.657 43.9445 23.4234" fill="white"/>
</g>
</svg>
