<svg width="60" height="60" viewBox="0 0 60 60" fill="none" xmlns="http://www.w3.org/2000/svg">
<path d="M30 2.49994C22.7837 2.42661 15.8334 5.22146 10.6768 10.2703C5.52022 15.319 2.57915 22.2087 2.5 29.4249C2.52781 35.1279 4.36236 40.6753 7.74016 45.2703C11.118 49.8654 15.8652 53.2717 21.3 54.9999C22.675 55.2499 23.175 54.4249 23.175 53.6999V49.1249C15.525 50.7499 13.9 45.5249 13.9 45.5249C13.3907 43.8847 12.3081 42.4826 10.85 41.5749C8.35 39.9249 11.05 39.9499 11.05 39.9499C11.9141 40.0655 12.7409 40.3751 13.4683 40.8557C14.1957 41.3363 14.8048 41.9754 15.25 42.7249C16.0258 44.0702 17.2988 45.0572 18.795 45.4733C20.2912 45.8894 21.891 45.7015 23.25 44.9499C23.3898 43.5809 24.0097 42.3055 25 41.3499C18.9 40.6749 12.5 38.3749 12.5 28.0499C12.4454 25.3566 13.4406 22.7477 15.275 20.7749C14.4396 18.4626 14.5382 15.9157 15.55 13.6749C15.55 13.6749 17.875 12.9499 23.05 16.4249C27.555 15.2269 32.295 15.2269 36.8 16.4249C42.05 12.9499 44.3 13.6749 44.3 13.6749C45.3118 15.9157 45.4104 18.4626 44.575 20.7749C46.452 22.7116 47.5011 25.303 47.5 27.9999C47.5 38.3499 41.05 40.6249 35 41.2999C35.6625 41.9431 36.1742 42.7251 36.4984 43.5896C36.8226 44.4541 36.9512 45.3798 36.875 46.2999V53.6749C36.875 54.5499 37.375 55.2499 38.75 54.9749C44.1694 53.236 48.9006 49.8289 52.268 45.2403C55.6353 40.6517 57.4665 35.1164 57.5 29.4249C57.4208 22.2087 54.4798 15.319 49.3232 10.2703C44.1665 5.22146 37.2163 2.42661 30 2.49994Z" fill="white"/>
</svg>
