<svg width="50" height="50" viewBox="0 0 50 50" fill="none" xmlns="http://www.w3.org/2000/svg">
<g clip-path="url(#clip0_74_50)">
<path d="M30 0H20C8.9543 0 0 8.9543 0 20V30C0 41.0457 8.9543 50 20 50H30C41.0457 50 50 41.0457 50 30V20C50 8.9543 41.0457 0 30 0Z" fill="white"/>
<path d="M25.0016 8.3335C15.7933 8.3335 8.33497 15.7918 8.33497 25.0002C8.33195 28.499 9.43123 31.9099 11.4767 34.7485C13.5222 37.5871 16.41 39.7092 19.73 40.8135C20.5633 40.9585 20.8766 40.4585 20.8766 40.0202C20.8766 39.6252 20.855 38.3135 20.855 36.9168C16.6683 37.6885 15.585 35.8968 15.2516 34.9585C15.0633 34.4785 14.2516 33.0002 13.5433 32.6035C12.96 32.2918 12.1266 31.5202 13.5216 31.5002C14.835 31.4785 15.7716 32.7085 16.085 33.2085C17.585 35.7285 19.98 35.0202 20.9383 34.5835C21.085 33.5002 21.5216 32.7718 22.0016 32.3552C18.2933 31.9385 14.4183 30.5002 14.4183 24.1252C14.4183 22.3118 15.0633 20.8135 16.1266 19.6468C15.96 19.2302 15.3766 17.5218 16.2933 15.2302C16.2933 15.2302 17.6883 14.7918 20.8766 16.9368C22.2336 16.5612 23.6353 16.3723 25.0433 16.3752C26.46 16.3752 27.8766 16.5618 29.21 16.9368C32.3983 14.7702 33.7933 15.2302 33.7933 15.2302C34.71 17.5218 34.1266 19.2302 33.96 19.6468C35.0216 20.8135 35.6683 22.2918 35.6683 24.1252C35.6683 30.5218 31.7733 31.9385 28.065 32.3552C28.6683 32.8752 29.19 33.8752 29.19 35.4385C29.19 37.6668 29.1683 39.4585 29.1683 40.0218C29.1683 40.4585 29.4816 40.9785 30.315 40.8118C33.6225 39.6937 36.4964 37.567 38.5326 34.7308C40.5687 31.8946 41.6648 28.4916 41.6666 25.0002C41.6666 15.7918 34.2083 8.3335 25 8.3335" fill="#982AA2"/>
</g>
<defs>
<clipPath id="clip0_74_50">
<rect width="50" height="50" fill="white"/>
</clipPath>
</defs>
</svg>
