<svg width="50" height="50" viewBox="0 0 50 50" fill="none" xmlns="http://www.w3.org/2000/svg">
<rect width="50" height="50" rx="20" fill="white"/>
<g clip-path="url(#clip0_134_96)">
<path d="M16.2744 38.867V25.0298L12.4407 21.1039L9.00293 18.9253V36.4251C9.00293 37.7762 9.98088 38.867 11.1844 38.867H16.2744Z" fill="#4285F4"/>
<path d="M33.7256 38.8673H38.8155C40.0227 38.8673 40.997 37.7725 40.997 36.4254V18.9258L37.1032 21.4211L33.7256 25.0302V38.8673Z" fill="#34A853"/>
<path d="M16.2743 25.0299L15.7527 19.6234L16.2743 14.4487L25 21.7743L33.7257 14.4487L34.3092 19.344L33.7257 25.0299L25 32.3555L16.2743 25.0299Z" fill="#EA4335"/>
<path d="M33.7256 14.4487V25.0299L40.997 18.9254V15.6696C40.997 12.6499 37.9176 10.9285 35.7617 12.7394L33.7256 14.4487Z" fill="#FBBC04"/>
<path d="M9.00293 18.9255L12.3472 21.7332L16.2744 25.03V14.4488L14.2382 12.7395C12.0786 10.9284 9.00293 12.65 9.00293 15.6695V18.9255Z" fill="#C5221F"/>
</g>
<defs>
<clipPath id="clip0_134_96">
<rect width="32" height="27" fill="white" transform="translate(9 12)"/>
</clipPath>
</defs>
</svg>
