<svg width="60" height="60" viewBox="0 0 60 60" fill="none" xmlns="http://www.w3.org/2000/svg">
<g clip-path="url(#clip0_36_2002)">
<path d="M45.9375 0H14.0625C6.296 0 0 6.296 0 14.0625V45.9375C0 53.704 6.296 60 14.0625 60H45.9375C53.704 60 60 53.704 60 45.9375V14.0625C60 6.296 53.704 0 45.9375 0Z" fill="white"/>
<path d="M9.75844 47.587H17.2158V29.4762L6.5625 21.4863V44.3911C6.5625 46.1595 7.99547 47.587 9.75844 47.587Z" fill="#4285F4"/>
<path d="M42.7839 47.5873H50.2415C52.0099 47.5873 53.4375 46.1543 53.4375 44.3913V21.4863L42.7839 29.4764" fill="#34A853"/>
<path d="M42.7839 15.6271V29.4766L53.4375 21.4867V17.2249C53.4375 13.2726 48.9257 11.0193 45.7671 13.3898" fill="#FBBC04"/>
<path d="M17.2161 29.4766V15.6274L30 25.215L42.784 15.627V29.4764L30 39.0647" fill="#EA4335"/>
<path d="M6.5625 17.2249V21.4863L17.2158 29.4763V15.6271L14.2329 13.3898C11.0688 11.0193 6.5625 13.2726 6.5625 17.2249Z" fill="#C5221F"/>
</g>
<defs>
<clipPath id="clip0_36_2002">
<rect width="60" height="60" fill="white"/>
</clipPath>
</defs>
</svg>
