<svg width="44" height="44" viewBox="0 0 44 44" fill="none" xmlns="http://www.w3.org/2000/svg">
<path d="M0.125 10.125C0.125 4.60215 4.60215 0.125 10.125 0.125L33.875 0.125C39.3978 0.125 43.875 4.60215 43.875 10.125V33.875C43.875 39.3978 39.3978 43.875 33.875 43.875H10.125C4.60215 43.875 0.125 39.3978 0.125 33.875L0.125 10.125Z" fill="#F5DE19"/>
<path d="M29.5141 34.3047C29.8875 35.0614 30.4667 35.6974 31.1854 36.1396C31.904 36.5819 32.7328 36.8124 33.5766 36.8047C35.2797 36.8047 36.3688 35.9531 36.3688 34.7734C36.3688 33.3672 35.2501 32.8641 33.3751 32.0437L32.3469 31.6031C29.3782 30.3391 27.4094 28.7562 27.4094 25.4094C27.4094 22.3266 29.7532 19.9781 33.4297 19.9781C34.6199 19.8924 35.8089 20.1588 36.8486 20.7443C37.8884 21.3297 38.7328 22.2082 39.2766 23.2703L36.0625 25.325C35.853 24.7984 35.4885 24.348 35.0172 24.0332C34.5459 23.7185 33.9901 23.5543 33.4235 23.5625C33.1762 23.5377 32.9265 23.5648 32.6903 23.6418C32.4541 23.7189 32.2365 23.8444 32.0514 24.0102C31.8664 24.176 31.7179 24.3785 31.6154 24.6049C31.5129 24.8313 31.4588 25.0765 31.4563 25.325C31.4563 26.5578 32.2204 27.0578 33.9844 27.825L35.0125 28.2656C38.5063 29.7641 40.4813 31.2906 40.4813 34.7234C40.4813 38.425 37.5735 40.4531 33.6688 40.4531C32.1476 40.5491 30.631 40.2032 29.3017 39.4572C27.9725 38.7113 26.8872 37.5969 26.1766 36.2484L29.5141 34.3047ZM14.9907 34.6609C15.636 35.8062 16.2235 36.775 17.636 36.775C18.986 36.775 19.8391 36.2469 19.8391 34.1922V20.2125H23.95V34.2469C23.95 38.5031 21.45 40.4406 17.811 40.4406C16.5247 40.5109 15.2472 40.1904 14.1464 39.5211C13.0457 38.8517 12.1733 37.865 11.6438 36.6906L14.9907 34.6609Z" fill="black"/>
</svg>
