<svg width="10" height="14" viewBox="0 0 10 14" fill="none" xmlns="http://www.w3.org/2000/svg">
<path d="M5 0.5C4.115 0.5 3.5295 0.992 3.297 1.5C3.121 1.885 3.1425 2.1525 3.1405 2.375C2.75523 2.63896 2.39445 2.93699 2.0625 3.2655C1.3635 3.965 0.9805 4.9605 1 6.0155C1.01 6.5015 1.109 6.99117 1.297 7.4845C1.3905 7.7325 1.5625 8.162 1.719 8.6405C1.8755 9.119 2 9.6465 2 10H1.453C1.32039 10.0042 1.19487 10.0609 1.10406 10.1576C1.01325 10.2543 0.964573 10.3831 0.96875 10.5157C0.972927 10.6484 1.02961 10.7739 1.12633 10.8647C1.22306 10.9555 1.35189 11.0042 1.4845 11L0.594 12.203L0.5 12.328V13.5H9.5V12.328L9.406 12.203L8.5 11C8.68 11.002 8.8475 10.908 8.9395 10.752C8.98364 10.6753 9.00687 10.5885 9.00687 10.5C9.00687 10.4115 8.98364 10.3247 8.9395 10.248C8.8475 10.092 8.6795 9.998 8.5 10H8C8 8.869 7.297 7.832 6.6405 7.031C6.2655 6.5725 6.1425 6.492 5.8905 6.25C5.9805 6.1975 6.092 6.135 6.1565 6.0935C6.2365 6.043 6.2795 6.0115 6.2965 6C6.4375 6 6.4475 6.0235 6.594 6.1405C6.74 6.258 7.039 6.5 7.453 6.5C7.8165 6.5 8.082 6.2655 8.219 6.0935C8.344 5.9355 8.412 5.8165 8.422 5.797C8.467 5.7755 8.5645 5.744 8.6875 5.6565C8.8105 5.569 8.9705 5.373 9 5.1565C9.0295 4.94 8.961 4.75 8.875 4.5625C8.748 4.285 8.5115 3.967 8.1405 3.578C7.7695 3.1895 7.283 2.7775 6.6875 2.531C6.6425 2.5115 6.6795 2.541 6.656 2.516C6.633 2.49 6.5625 2.385 6.422 2.281C6.2385 2.1465 5.84 2.131 5.5 2.0935V0.5H5ZM4.5 1.6095V3H5C5.6815 3 5.832 3.082 5.828 3.078C5.826 3.076 5.83 3.086 5.9065 3.172C6.01933 3.29857 6.1577 3.3998 6.3125 3.469C6.7125 3.635 7.1135 3.959 7.422 4.281C7.711 4.582 7.9045 4.881 7.9375 4.9375C7.8575 4.9765 7.7735 5.004 7.672 5.125C7.535 5.291 7.4865 5.4065 7.4375 5.469C7.422 5.4885 7.424 5.494 7.422 5.5C7.379 5.494 7.3495 5.467 7.2185 5.3595C7.0545 5.2265 6.7285 5 6.297 5C5.9685 5 5.783 5.15 5.625 5.25C5.467 5.35 5.34 5.422 5.297 5.4375L5.281 5.453H5.266C5.174 5.492 5.016 5.5 5.016 5.5L4.5 5.4845V6.2815L4.672 6.4215C4.672 6.4215 5.2655 6.9455 5.8595 7.6715C6.453 8.399 7 9.3345 7 10H3C3 9.4395 2.8435 8.8515 2.672 8.328C2.5005 7.8045 2.297 7.348 2.219 7.1405C2.08135 6.77044 2.0073 6.37976 2 5.985C1.9845 5.182 2.2715 4.4635 2.7655 3.9695C3.092 3.643 3.578 3.2345 3.8435 3.0785L4.0935 2.938V2.6565C4.0935 2.4715 4.0935 2.1605 4.2035 1.9225C4.26133 1.78581 4.36664 1.67464 4.5 1.6095ZM2.75 11H7.25L8.375 12.5H1.625L2.75 11Z" fill="#F3EAEA"/>
</svg>
