<svg width="50" height="50" viewBox="0 0 50 50" fill="none" xmlns="http://www.w3.org/2000/svg">
<rect width="50" height="50" rx="20" fill="white"/>
<path d="M31.5934 28.5101L30.835 29.2651C30.835 29.2651 29.03 31.0585 24.105 26.1618C19.18 21.2651 20.985 19.4718 20.985 19.4718L21.4617 18.9951C22.64 17.8251 22.7517 15.9451 21.7234 14.5718L19.6234 11.7668C18.35 10.0668 15.8917 9.8418 14.4334 11.2918L11.8167 13.8918C11.095 14.6118 10.6117 15.5418 10.67 16.5751C10.82 19.2201 12.0167 24.9085 18.69 31.5451C25.7684 38.5818 32.41 38.8618 35.125 38.6085C35.985 38.5285 36.7317 38.0918 37.3334 37.4918L39.7 35.1385C41.3 33.5501 40.85 30.8251 38.8034 29.7135L35.62 27.9818C34.2767 27.2535 32.6434 27.4668 31.5934 28.5101Z" fill="#4BC457"/>
</svg>
