<svg width="27" height="24" viewBox="0 0 27 24" fill="none" xmlns="http://www.w3.org/2000/svg">
<path d="M13.4863 14.3837C14.8164 14.3837 15.8946 13.3054 15.8946 11.9754C15.8946 10.6453 14.8164 9.56713 13.4863 9.56713C12.1563 9.56713 11.078 10.6453 11.078 11.9754C11.078 13.3054 12.1563 14.3837 13.4863 14.3837Z" fill="#00D8FF"/>
<path d="M13.4863 17.4971C10.5917 17.5668 7.70439 17.1767 4.93214 16.3411C3.65154 15.9352 2.45714 15.2957 1.40932 14.4549C1.00934 14.1679 0.676266 13.7976 0.432987 13.3696C0.189708 12.9416 0.0419944 12.4659 0 11.9754C0 10.383 1.74937 8.82248 4.67975 7.80138C7.52624 6.89733 10.5 6.45884 13.4863 6.50284C16.4328 6.4621 19.3668 6.89267 22.1773 7.77826C23.4104 8.17189 24.5642 8.78043 25.5855 9.57579C25.978 9.85003 26.3057 10.207 26.5454 10.6216C26.785 11.0362 26.9309 11.4983 26.9726 11.9754C26.9726 13.6304 25.0171 15.3075 21.8671 16.3498C19.1486 17.1583 16.3221 17.5453 13.4863 17.4971ZM13.4863 7.65495C10.6293 7.61762 7.78451 8.03447 5.05833 8.88992C2.36107 9.83107 1.15212 11.118 1.15212 11.9725C1.15212 12.8664 2.45162 14.2719 5.30494 15.2477C7.95696 16.0435 10.7183 16.4138 13.4863 16.345C16.1994 16.3935 18.9039 16.0264 21.5058 15.2564C24.468 14.2748 25.8166 12.8674 25.8166 11.9754C25.7679 11.6693 25.6562 11.3767 25.4888 11.1159C25.3214 10.8551 25.1017 10.6318 24.8437 10.4601C23.9302 9.75424 22.8994 9.21489 21.7987 8.8668C19.11 8.02332 16.3039 7.61423 13.4863 7.65495Z" fill="#00D8FF"/>
<path d="M8.01471 23.9869C7.56534 23.9971 7.12127 23.8881 6.72774 23.6709C5.34828 22.8752 4.87048 20.5806 5.44943 17.5318C6.08849 14.6142 7.19447 11.819 8.72467 9.25405C10.161 6.68137 11.9994 4.35485 14.1702 2.36254C15.1273 1.49085 16.2309 0.795236 17.4301 0.307808C17.8641 0.105072 18.3373 0 18.8163 0C19.2953 0 19.7685 0.105072 20.2025 0.307808C21.6368 1.13433 22.1118 3.6659 21.4423 6.91514C20.7843 9.67462 19.707 12.3169 18.2479 14.7497C16.8622 17.2921 15.0817 19.5984 12.9729 21.5825C11.9814 22.4887 10.8308 23.2037 9.57913 23.6911C9.07816 23.8776 8.54917 23.9776 8.01471 23.9869ZM9.72266 9.82625C8.26314 12.2824 7.20314 14.9549 6.58228 17.7437C6.04957 20.5517 6.56108 22.2404 7.30476 22.67C8.0754 23.116 9.94615 22.6932 12.2176 20.7087C14.2311 18.8082 15.9306 16.6005 17.2528 14.1679C18.6505 11.842 19.6839 9.31584 20.3171 6.6772C20.9471 3.6187 20.4029 1.74603 19.6303 1.30098C19.3407 1.1902 19.0313 1.14063 18.7216 1.15539C18.4119 1.17014 18.1086 1.24891 17.8308 1.38671C16.7632 1.82739 15.7817 2.45283 14.9313 3.23434C12.8574 5.14285 11.1013 7.37009 9.7294 9.83203L9.72266 9.82625Z" fill="#00D8FF"/>
<path d="M18.955 23.9994C17.6497 23.9994 15.9919 23.2095 14.2656 21.725C12.057 19.7144 10.1876 17.3602 8.7295 14.7536C7.21817 12.2241 6.12092 9.46927 5.4793 6.59339C5.20168 5.32801 5.15016 4.0235 5.3271 2.74016C5.36869 2.26425 5.5139 1.8032 5.75253 1.38934C5.99116 0.975484 6.31744 0.618839 6.70848 0.344416C8.14092 -0.484992 10.5713 0.367535 13.0519 2.56966C15.1139 4.51764 16.865 6.77036 18.2441 9.24923C19.7546 11.7196 20.8634 14.4141 21.529 17.2322C21.819 18.5439 21.8638 19.898 21.6609 21.226C21.6129 21.7158 21.4593 22.1894 21.2109 22.6143C20.9625 23.0391 20.625 23.4052 20.2218 23.6873C19.8345 23.9014 19.3974 24.0091 18.955 23.9994ZM9.72652 14.1737C11.1254 16.6647 12.9111 18.9177 15.017 20.8484C17.1835 22.7124 18.902 23.1132 19.6409 22.6787C20.4115 22.2308 20.9799 20.4024 20.3942 17.4441C19.7527 14.7535 18.6892 12.1814 17.2432 9.82336C15.9272 7.45085 14.2557 5.29376 12.287 3.427C9.95194 1.35396 8.05807 0.890611 7.28646 1.33759C7.0461 1.53314 6.84883 1.77635 6.70708 2.05189C6.56533 2.32743 6.48217 2.62934 6.46283 2.9386C6.30979 4.0831 6.35969 5.24562 6.61022 6.3728C7.22758 9.123 8.2799 11.7571 9.72748 14.1756L9.72652 14.1737Z" fill="#00D8FF"/>
</svg>
