<svg width="24" height="24" viewBox="0 0 24 24" fill="none" xmlns="http://www.w3.org/2000/svg">
<g clip-path="url(#clip0_57_46)">
<path d="M18.375 0H5.625C2.5184 0 0 2.5184 0 5.625V18.375C0 21.4816 2.5184 24 5.625 24H18.375C21.4816 24 24 21.4816 24 18.375V5.625C24 2.5184 21.4816 0 18.375 0Z" fill="#CD6799"/>
<mask id="mask0_57_46" style="mask-type:luminance" maskUnits="userSpaceOnUse" x="2" y="4" width="20" height="16">
<path d="M2.625 4.96875H21.375V19.0227H2.625V4.96875Z" fill="white"/>
</mask>
<g mask="url(#mask0_57_46)">
<path d="M18.76 13.0465C18.1062 13.0499 17.5381 13.2074 17.0623 13.4401C16.8878 13.0944 16.7132 12.7864 16.6823 12.5604C16.6481 12.2969 16.6071 12.136 16.6481 11.8211C16.6892 11.5062 16.8741 11.0579 16.8706 11.0237C16.8671 10.9895 16.8295 10.8286 16.453 10.8251C16.0765 10.8217 15.7514 10.897 15.7137 10.9963C15.676 11.0955 15.6042 11.3214 15.5563 11.5542C15.4913 11.8965 14.8032 13.1184 14.4097 13.7585C14.283 13.5086 14.1735 13.2895 14.1495 13.115C14.1153 12.8514 14.0742 12.6906 14.1153 12.3757C14.1563 12.0608 14.3412 11.6123 14.3378 11.5781C14.3343 11.5439 14.2967 11.383 13.9202 11.3797C13.5437 11.3763 13.2185 11.4515 13.1809 11.5508C13.1432 11.65 13.1021 11.8828 13.0234 12.1087C12.9447 12.3346 12.0308 14.3746 11.7912 14.9017C11.6944 15.115 11.5929 15.3261 11.4866 15.5348C11.4866 15.5348 11.4832 15.5452 11.4729 15.5622C11.4395 15.6277 11.4053 15.6927 11.3702 15.7573V15.7608C11.3189 15.8532 11.2641 15.9387 11.2367 15.9387C11.2162 15.9387 11.1786 15.6923 11.2435 15.3569C11.3805 14.6483 11.7056 13.5462 11.7023 13.5086C11.7023 13.4881 11.7638 13.2964 11.49 13.1971C11.223 13.0978 11.1272 13.2622 11.1032 13.2622C11.0793 13.2622 11.0621 13.3204 11.0621 13.3204C11.0621 13.3204 11.36 12.0813 10.494 12.0813C9.95316 12.0813 9.207 12.6734 8.83744 13.2074C8.41718 13.4361 7.99728 13.6654 7.57772 13.8953C7.37588 14.0083 7.1671 14.1213 6.97191 14.2274C6.95822 14.2137 6.94453 14.1966 6.93085 14.1829C5.88347 13.0636 3.94622 12.273 4.02835 10.7704C4.05919 10.2227 4.24744 8.78513 7.74891 7.0395C10.6309 5.61909 12.9242 6.01266 13.3212 6.88547C13.8893 8.13141 12.0924 10.4452 9.11466 10.7806C7.97822 10.9073 7.38272 10.4692 7.23216 10.3049C7.07466 10.1337 7.05066 10.1235 6.99244 10.1577C6.89663 10.209 6.95822 10.363 6.99244 10.452C7.0815 10.6848 7.44769 11.0955 8.06719 11.2974C8.61488 11.4755 9.94632 11.5748 11.5584 10.9518C13.3623 10.2535 14.7725 8.31272 14.3583 6.687C13.9442 5.03719 11.2059 4.49297 8.61488 5.41369C7.07457 5.96138 5.40432 6.82388 4.20291 7.94653C2.77557 9.28153 2.54972 10.4418 2.64216 10.9278C2.97413 12.6529 5.35294 13.7755 6.3045 14.6073C6.2566 14.6347 6.21207 14.6587 6.17447 14.6792C5.69869 14.9153 3.88463 15.8634 3.43275 16.8664C2.91938 18.0027 3.51497 18.8173 3.90853 18.9268C5.13047 19.2657 6.38663 18.6564 7.06097 17.6501C7.73532 16.6438 7.6531 15.3364 7.34157 14.7374C7.33817 14.7299 7.33354 14.7229 7.32788 14.7169C7.45116 14.645 7.57772 14.5697 7.701 14.4978C7.92752 14.3639 8.15689 14.235 8.38894 14.111C8.2726 14.4293 8.187 14.8092 8.14594 15.3569C8.09466 16.0004 8.35819 16.8355 8.70385 17.1641C8.85788 17.3078 9.03928 17.3113 9.15572 17.3113C9.5596 17.3113 9.741 16.9759 9.94294 16.5788C10.1893 16.0928 10.4119 15.528 10.4119 15.528C10.4119 15.528 10.1346 17.0546 10.8876 17.0546C11.1614 17.0546 11.4386 16.6987 11.5619 16.5173V16.5206C11.5619 16.5206 11.5688 16.5104 11.5824 16.4864C11.6098 16.4419 11.6269 16.4145 11.6269 16.4145V16.4077C11.7365 16.216 11.9828 15.7813 12.3491 15.0591C12.8214 14.1281 13.2767 12.9644 13.2767 12.9644C13.2767 12.9644 13.3178 13.2485 13.4581 13.7208C13.5402 13.9981 13.7114 14.3027 13.8483 14.5971C13.7388 14.7511 13.6703 14.8366 13.6703 14.8366L13.6737 14.8401C13.5848 14.9564 13.4889 15.0831 13.3828 15.2063C13.0097 15.6513 12.5648 16.1613 12.5032 16.3085C12.4313 16.483 12.4484 16.6096 12.5853 16.7123C12.6846 16.7876 12.8625 16.7978 13.0439 16.7876C13.3793 16.7636 13.6156 16.6815 13.7319 16.6301C13.9133 16.5652 14.1256 16.4659 14.3241 16.3187C14.6903 16.0483 14.9128 15.6615 14.8923 15.1515C14.882 14.8708 14.7895 14.5902 14.6767 14.3266C14.7109 14.2787 14.7416 14.2308 14.7758 14.1829C15.3544 13.3374 15.8027 12.4099 15.8027 12.4099C15.8027 12.4099 15.8438 12.6939 15.9841 13.1663C16.0525 13.4059 16.1929 13.666 16.3162 13.9193C15.7719 14.3609 15.4365 14.8743 15.3167 15.2097C15.1011 15.8327 15.2688 16.1133 15.5871 16.1783C15.7309 16.2092 15.9362 16.1408 16.0868 16.0757C16.2785 16.0141 16.5044 15.908 16.72 15.7505C17.0862 15.4801 17.4388 15.1036 17.4183 14.5936C17.408 14.3609 17.3464 14.1315 17.2608 13.909C17.7229 13.7174 18.3185 13.6113 19.0783 13.7003C20.7076 13.892 21.0293 14.9085 20.9677 15.3364C20.9061 15.7642 20.5638 15.9969 20.4508 16.0688C20.3379 16.1408 20.3003 16.1647 20.3106 16.216C20.3243 16.2913 20.379 16.2878 20.4748 16.2742C20.6083 16.2503 21.3305 15.9285 21.3613 15.1413C21.4127 14.135 20.4543 13.0362 18.76 13.0465ZM6.19153 17.2839C5.65078 17.8726 4.89778 18.0952 4.57257 17.9069C4.22344 17.7049 4.36032 16.8355 5.02444 16.2126C5.42822 15.8327 5.94853 15.4801 6.29419 15.2645C6.37294 15.2166 6.48928 15.1481 6.62963 15.0625C6.65363 15.0488 6.66732 15.042 6.66732 15.042L6.74944 14.9906C6.99244 15.8806 6.75966 16.6644 6.19153 17.2839ZM10.1278 14.6073C9.93957 15.066 9.546 16.2399 9.30638 16.175C9.10107 16.1201 8.97441 15.2303 9.26532 14.3506C9.4125 13.909 9.72394 13.382 9.90535 13.1766C10.1997 12.848 10.5248 12.7385 10.6036 12.872C10.7029 13.0465 10.2443 14.3198 10.1278 14.6073ZM13.3761 16.1613C13.2973 16.2023 13.222 16.2297 13.1878 16.2092C13.1638 16.1955 13.222 16.1408 13.222 16.1408C13.222 16.1408 13.6294 15.7026 13.7903 15.5041C13.8826 15.3877 13.9922 15.2508 14.1085 15.0968V15.1413C14.1085 15.665 13.602 16.0175 13.3761 16.1613ZM15.8815 15.5896C15.8233 15.5485 15.8336 15.4117 16.0287 14.9838C16.104 14.8161 16.282 14.5355 16.5866 14.265C16.6208 14.3746 16.6448 14.4806 16.6414 14.5799C16.638 15.2406 16.1656 15.4869 15.8815 15.5896Z" fill="white"/>
</g>
</g>
<defs>
<clipPath id="clip0_57_46">
<rect width="24" height="24" fill="white"/>
</clipPath>
</defs>
</svg>
